<svg class="animated" id="freepik_stories-printing-invoices" xmlns="http://www.w3.org/2000/svg" viewBox="0 0 500 500" version="1.1" xmlns:xlink="http://www.w3.org/1999/xlink" xmlns:svgjs="http://svgjs.com/svgjs"><style>svg#freepik_stories-printing-invoices:not(.animated) .animable {opacity: 0;}svg#freepik_stories-printing-invoices.animated #freepik--Floor--inject-8 {animation: 1s 1 forwards cubic-bezier(.36,-0.01,.5,1.38) slideRight;animation-delay: 0s;}svg#freepik_stories-printing-invoices.animated #freepik--Shadows--inject-8 {animation: 1s 1 forwards cubic-bezier(.36,-0.01,.5,1.38) zoomOut;animation-delay: 0s;}svg#freepik_stories-printing-invoices.animated #freepik--Plant--inject-8 {animation: 1s 1 forwards cubic-bezier(.36,-0.01,.5,1.38) lightSpeedRight;animation-delay: 0s;}svg#freepik_stories-printing-invoices.animated #freepik--Clouds--inject-8 {animation: 1s 1 forwards cubic-bezier(.36,-0.01,.5,1.38) zoomIn;animation-delay: 0s;}svg#freepik_stories-printing-invoices.animated #freepik--Printer--inject-8 {animation: 1s 1 forwards cubic-bezier(.36,-0.01,.5,1.38) zoomOut;animation-delay: 0s;}svg#freepik_stories-printing-invoices.animated #freepik--Coins--inject-8 {animation: 1s 1 forwards cubic-bezier(.36,-0.01,.5,1.38) fadeIn,6s Infinite  linear floating;animation-delay: 0s,1s;}svg#freepik_stories-printing-invoices.animated #freepik--Money--inject-8 {animation: 1s 1 forwards cubic-bezier(.36,-0.01,.5,1.38) slideDown,6s Infinite  linear wind;animation-delay: 0s,1s;}svg#freepik_stories-printing-invoices.animated #freepik--Character--inject-8 {animation: 1s 1 forwards cubic-bezier(.36,-0.01,.5,1.38) slideRight,6s Infinite  linear floating;animation-delay: 0s,1s;}            @keyframes slideRight {                0% {                    opacity: 0;                    transform: translateX(30px);                }                100% {                    opacity: 1;                    transform: translateX(0);                }            }                    @keyframes zoomOut {                0% {                    opacity: 0;                    transform: scale(1.5);                }                100% {                    opacity: 1;                    transform: scale(1);                }            }                    @keyframes lightSpeedRight {              from {                transform: translate3d(50%, 0, 0) skewX(-20deg);                opacity: 0;              }              60% {                transform: skewX(10deg);                opacity: 1;              }              80% {                transform: skewX(-2deg);              }              to {                opacity: 1;                transform: translate3d(0, 0, 0);              }            }                    @keyframes zoomIn {                0% {                    opacity: 0;                    transform: scale(0.5);                }                100% {                    opacity: 1;                    transform: scale(1);                }            }                    @keyframes fadeIn {                0% {                    opacity: 0;                }                100% {                    opacity: 1;                }            }                    @keyframes floating {                0% {                    opacity: 1;                    transform: translateY(0px);                }                50% {                    transform: translateY(-10px);                }                100% {                    opacity: 1;                    transform: translateY(0px);                }            }                    @keyframes slideDown {                0% {                    opacity: 0;                    transform: translateY(-30px);                }                100% {                    opacity: 1;                    transform: translateY(0);                }            }                    @keyframes wind {                0% {                    transform: rotate( 0deg );                }                25% {                    transform: rotate( 1deg );                }                75% {                    transform: rotate( -1deg );                }            }        .animator-hidden { display: none; }</style><g id="freepik--Floor--inject-8" class="animable animator-hidden" style="transform-origin: 251.3px 344.19px;"><ellipse id="freepik--floor--inject-8" cx="251.3" cy="344.19" rx="226.16" ry="125.1" style="fill: rgb(240, 240, 240); transform-origin: 251.3px 344.19px;" class="animable"></ellipse></g><g id="freepik--Shadows--inject-8" class="animable animator-hidden" style="transform-origin: 247.504px 337.923px;"><path id="freepik--Shadow--inject-8" d="M136,434,41.09,379.13a1.19,1.19,0,0,1,0-2.25L91,348.05a4.32,4.32,0,0,1,3.9,0l95,54.85a1.19,1.19,0,0,1,0,2.25l-50,28.8A4.32,4.32,0,0,1,136,434Z" style="fill: rgb(224, 224, 224); transform-origin: 115.495px 391.013px;" class="animable"></path><ellipse id="freepik--shadow--inject-8" cx="207.71" cy="436.79" rx="27.73" ry="16.01" style="fill: rgb(224, 224, 224); transform-origin: 207.71px 436.79px;" class="animable"></ellipse><ellipse id="freepik--shadow--inject-8" cx="402.1" cy="317.8" rx="52.62" ry="30.38" style="fill: rgb(224, 224, 224); transform-origin: 402.1px 317.8px;" class="animable"></ellipse><path id="freepik--shadow--inject-8" d="M407.05,362.92l-95.38-55,28.16-16.25c1.77-1,1.77-2.68,0-3.71L229,223.81a7.1,7.1,0,0,0-6.41,0L64.92,315c-1.77,1-1.77,2.69,0,3.71l110.7,64a7.1,7.1,0,0,0,6.41,0l23.12-13.28,95.39,55Z" style="fill: rgb(224, 224, 224); transform-origin: 235.321px 323.738px;" class="animable"></path></g><g id="freepik--Plant--inject-8" class="animable animator-hidden" style="transform-origin: 49.4359px 263.159px;"><g id="freepik--Plants--inject-8" class="animable" style="transform-origin: 49.4359px 263.159px;"><path d="M70.73,272.79c1.15-7.88-2.16-25.05-8.84-36.48s-18.45-20.8-28-19c-8.94,1.66-9.65,13-.41,21.87s23.4,20.48,26.07,33.93l7.23,17.08Z" style="fill: #2E3CDB; transform-origin: 48.9079px 253.639px;" id="elwewtaw48z5m" class="animable"></path><g id="elkqakdwvy52"><g style="opacity: 0.15; transform-origin: 48.9079px 253.639px;" class="animable" id="elhu40ousd4d"><path d="M70.73,272.79c1.15-7.88-2.16-25.05-8.84-36.48s-18.45-20.8-28-19c-8.94,1.66-9.65,13-.41,21.87s23.4,20.48,26.07,33.93l7.23,17.08Z" id="el4t04ybb965c" class="animable" style="transform-origin: 48.9079px 253.639px;"></path></g></g><path d="M69.73,283.67a.59.59,0,0,1-.45-.54c-1.34-27.69-19.91-52.75-32.23-59.49a.58.58,0,1,1,.56-1c12.56,6.87,31.48,32.35,32.83,60.45a.58.58,0,0,1-.55.61Z" style="fill: rgb(255, 255, 255); transform-origin: 53.5564px 253.108px;" id="elehkld3sx72u" class="animable"></path><path d="M68.65,309.23c-.61-4.61-5-12.72-12.83-20-8.7-8.1-20.51-13-22.58-18.59-2.47-6.74,3.66-11.87,13.42-9.18s25.28,18.82,25.08,39.67Z" style="fill: #2E3CDB; transform-origin: 52.2171px 284.98px;" id="elq7hg48sb4v" class="animable"></path><path d="M71.26,304.86a.57.57,0,0,1-.44-.45c-4.88-24.26-21.29-34.93-29.28-37.18a.58.58,0,1,1,.32-1.12C50.7,268.6,67,279.42,72,304.18a.59.59,0,0,1-.46.69A.65.65,0,0,1,71.26,304.86Z" style="fill: rgb(255, 255, 255); transform-origin: 56.5642px 285.484px;" id="elciqj5pcm9oh" class="animable"></path></g></g><g id="freepik--Clouds--inject-8" class="animable animator-hidden" style="transform-origin: 115.61px 81.7228px;"><g id="freepik--clouds--inject-8" class="animable" style="transform-origin: 115.61px 81.7228px;"><path d="M166.56,67.18l-6.11,3.52a7.31,7.31,0,0,0,.05-.8V68.12c0-3.15-2.21-4.42-4.94-2.85a9.65,9.65,0,0,0-2.95,2.83c-.44-4-3.55-5.44-7.33-3.26a16.37,16.37,0,0,0-7.39,12.81V80.3a7,7,0,0,0,.62,3.07l-5.07,2.93a6,6,0,0,0-2.74,4.75c0,1.75,1.22,2.45,2.74,1.58l33.12-19.12a6.05,6.05,0,0,0,2.74-4.75C169.3,67,168.08,66.3,166.56,67.18Z" style="fill: rgb(235, 235, 235); transform-origin: 150px 78.4139px;" id="els9reiuir4q" class="animable"></path><path d="M104.3,71.38l-3.37,1.29V65.25c0-5.89-4.7-7.3-9.8-4.36h0C86,63.83,81.9,71,81.9,76.88V78a5,5,0,0,0-4.29.66h0A14.68,14.68,0,0,0,71,90.13v.49l-4.71,2.72a9.68,9.68,0,0,0-4.37,7.58c0,2.79,2,3.92,4.37,2.52l38-22a9.68,9.68,0,0,0,4.37-7.58C108.67,71.11,106.71,70,104.3,71.38Z" style="fill: rgb(235, 235, 235); transform-origin: 85.29px 81.7228px;" id="eldxye41kc2r7" class="animable"></path></g></g><g id="freepik--Printer--inject-8" class="animable" style="transform-origin: 234.65px 260.93px;"><g id="freepik--printer--inject-8" class="animable" style="transform-origin: 234.65px 260.93px;"><g id="freepik--printer--inject-8" class="animable" style="transform-origin: 200.28px 238.85px;"><path d="M184.11,374.88,326.63,292.6a13,13,0,0,0,5.87-10.17V232.38a13,13,0,0,0-5.87-10.17l-98.44-56.84a13,13,0,0,0-11.75,0L73.93,247.65a13,13,0,0,0-5.87,10.17v50.05a13,13,0,0,0,5.87,10.18l98.44,56.83A13,13,0,0,0,184.11,374.88Z" style="fill: #2E3CDB; transform-origin: 200.28px 270.124px;" id="elk1nloyaxnse" class="animable"></path><path d="M178.24,371.49V321.44a13,13,0,0,0-5.87-10.17L73.93,254.43c-3.25-1.87-5.87-.35-5.87,3.39v50.05a13,13,0,0,0,5.87,10.18l98.44,56.83C175.61,376.75,178.24,375.24,178.24,371.49Z" style="fill: rgb(38, 50, 56); transform-origin: 123.15px 314.656px;" id="eljuticio26um" class="animable"></path><path d="M329.78,225.1,175.53,314.16a10.87,10.87,0,0,0-3.16-2.89L73.94,254.44c-2.94-1.7-5.36-.64-5.8,2.35a13,13,0,0,1,5.8-9.13l142.5-82.3a13,13,0,0,1,11.75,0l98.43,56.86A10.58,10.58,0,0,1,329.78,225.1Z" style="fill: #2E3CDB; transform-origin: 198.96px 239.058px;" id="ele1o510nemf9" class="animable"></path><path d="M329.78,225.1,175.53,314.16a10.87,10.87,0,0,0-3.16-2.89L73.94,254.44c-2.94-1.7-5.36-.64-5.8,2.35a13,13,0,0,1,5.8-9.13l142.5-82.3a13,13,0,0,1,11.75,0l98.43,56.86A10.58,10.58,0,0,1,329.78,225.1Z" style="fill: rgb(69, 90, 100); transform-origin: 198.96px 239.058px;" id="el946wgo6bvoa" class="animable"></path><path d="M332.49,232.38v50a12.87,12.87,0,0,1-5.87,10.17l-142.5,82.29a13.06,13.06,0,0,1-10.86.42c2.81,1.16,5-.42,5-3.82v-50a12.62,12.62,0,0,0-2.71-7.28L329.78,225.1A12.63,12.63,0,0,1,332.49,232.38Z" style="fill: rgb(55, 71, 79); transform-origin: 252.875px 300.672px;" id="el2tpiihnn8o5" class="animable"></path><path d="M302.07,249.2v13.24a10.42,10.42,0,0,1-4.69,8.15l-80,46.22c-2.59,1.51-4.7.29-4.7-2.7V300.87a11.66,11.66,0,0,0-2.22-6.86l89.45-51.65A11.72,11.72,0,0,1,302.07,249.2Z" style="fill: #2E3CDB; transform-origin: 256.265px 279.909px;" id="elbtr9cbbwp0s" class="animable"></path><g id="el8kmsu365gti"><path d="M302.07,249.2v13.24a10.42,10.42,0,0,1-4.69,8.15l-80,46.22c-2.59,1.51-4.7.29-4.7-2.7V300.87a11.66,11.66,0,0,0-2.22-6.86l89.45-51.65A11.72,11.72,0,0,1,302.07,249.2Z" style="opacity: 0.15; transform-origin: 256.265px 279.909px;" class="animable" id="elfwh8im434ad"></path></g><path d="M299.87,242.36,210.42,294a11.53,11.53,0,0,0-3.65-3.32l-66.56-38.43c-2.59-1.49-2.59-3.93,0-5.42l80-46.24a10.44,10.44,0,0,1,9.4,0L296.21,239A11.59,11.59,0,0,1,299.87,242.36Z" style="fill: #2E3CDB; transform-origin: 219.069px 246.736px;" id="elubo0o4svjwp" class="animable"></path><path d="M211.15,242.45c-6.46,3.73-6.46,9.78,0,13.51s16.94,3.73,23.4,0,6.47-9.77,0-13.51S217.61,238.72,211.15,242.45Z" style="fill: rgb(250, 250, 250); transform-origin: 222.852px 249.203px;" id="el942c9xq8g6" class="animable"></path><path d="M199.8,344.74a8.93,8.93,0,0,1,4-7l109.41-63.17c2.23-1.28,4-.24,4,2.34V298L199.8,365.83V344.74" style="fill: rgb(38, 50, 56); transform-origin: 258.505px 319.926px;" id="el5lqq13jveu" class="animable"></path><polygon points="203.63 350.89 203.63 344.53 313.82 280.92 313.82 287.28 203.63 350.89" id="el6orhsd43r02" class="animable" style="transform-origin: 258.725px 315.905px;"></polygon><polygon points="101.11 244.68 211.3 181.06 216.69 184.19 106.52 247.8 101.11 244.68" style="fill: rgb(38, 50, 56); transform-origin: 158.9px 214.43px;" id="elopvjhkmtl3m" class="animable"></polygon><polygon points="103.67 246.18 87.83 176.18 198.02 112.56 213.85 182.57 103.67 246.18" style="fill: rgb(55, 71, 79); transform-origin: 150.84px 179.37px;" id="el59tulvnw8lo" class="animable"></polygon><polygon points="87.83 176.18 85.28 174.68 101.11 244.68 103.67 246.18 87.83 176.18" style="fill: rgb(38, 50, 56); transform-origin: 94.475px 210.43px;" id="el2wfrzf41mdb" class="animable"></polygon><polygon points="85.28 174.68 87.83 176.18 198.02 112.56 195.47 111.06 85.28 174.68" style="fill: rgb(69, 90, 100); transform-origin: 141.65px 143.62px;" id="elbl75g4mgqxo" class="animable"></polygon><polygon points="106.86 244.34 87.73 159.68 188.64 101.42 207.77 186.08 106.86 244.34" style="fill: rgb(224, 224, 224); transform-origin: 147.75px 172.88px;" id="elz89sh2785sj" class="animable"></polygon><polygon points="109.67 245.98 90.53 161.32 191.45 103.06 210.58 187.72 109.67 245.98" style="fill: rgb(250, 250, 250); transform-origin: 150.555px 174.52px;" id="eluelnaq6r9a" class="animable"></polygon><polygon points="90.53 161.32 87.73 159.68 107.51 247.23 109.67 245.98 90.53 161.32" style="fill: rgb(224, 224, 224); transform-origin: 98.7px 203.455px;" id="elno1irgs8awh" class="animable"></polygon><polygon points="87.73 159.68 90.53 161.32 191.45 103.06 188.64 101.42 87.73 159.68" style="fill: rgb(235, 235, 235); transform-origin: 139.59px 131.37px;" id="el6s7hm6dyjo" class="animable"></polygon><path d="M193.31,296.21v-1.27a1.63,1.63,0,0,0-1-1.35l-2.65-1.53a5.19,5.19,0,0,0-4.7,0l-10,5.77a1.64,1.64,0,0,0-1,1.36h0v1.29h0a1.66,1.66,0,0,0,1,1.33l2.65,1.53a5.19,5.19,0,0,0,4.7,0l10-5.77a1.65,1.65,0,0,0,1-1.34h0Z" style="fill: rgb(38, 50, 56); transform-origin: 183.635px 297.7px;" id="elzvcjojbjdt8" class="animable"></path><path d="M177.65,302.07,175,300.54c-1.29-.75-1.29-2,0-2.71l10-5.77a5.19,5.19,0,0,1,4.7,0l2.65,1.53c1.29.74,1.29,2,0,2.71l-10,5.77A5.25,5.25,0,0,1,177.65,302.07Z" style="fill: rgb(55, 71, 79); transform-origin: 183.675px 297.061px;" id="el40po3h5skd" class="animable"></path><path d="M180.14,301a4.08,4.08,0,0,1-2-.48,1.67,1.67,0,0,1-.85-1,1.15,1.15,0,0,1,.14-.9.21.21,0,0,1,.29-.08.23.23,0,0,1,.08.3.7.7,0,0,0-.1.57,1.3,1.3,0,0,0,.66.73,3.92,3.92,0,0,0,3.56,0,.94.94,0,0,0,0-1.81,3.92,3.92,0,0,0-2.61-.34.24.24,0,0,1-.26-.17.23.23,0,0,1,.17-.26,4.38,4.38,0,0,1,2.92.4,1.36,1.36,0,0,1,0,2.55A4.08,4.08,0,0,1,180.14,301Z" style="fill: rgb(250, 250, 250); transform-origin: 180.14px 299.234px;" id="elqhpaq94l2sq" class="animable"></path><path d="M180.23,299.51l-.1,0-2.47-1.43a.21.21,0,0,1-.07-.29.21.21,0,0,1,.29-.08l2.46,1.42a.21.21,0,0,1,.08.3A.21.21,0,0,1,180.23,299.51Z" style="fill: rgb(250, 250, 250); transform-origin: 179.006px 298.596px;" id="el9iugiwyw6aq" class="animable"></path><path d="M164.51,299.26l22-12.72a.75.75,0,0,0,0-1.41l-12.74-7.35a2.68,2.68,0,0,0-2.42,0l-22,12.73a.74.74,0,0,0,0,1.4l12.73,7.35A2.68,2.68,0,0,0,164.51,299.26Z" style="fill: rgb(38, 50, 56); transform-origin: 167.927px 288.521px;" id="eleezeqdrvm68" class="animable"></path><path d="M173.72,279.6a2.65,2.65,0,0,0-2.42,0l-21.58,12.51,12.37,7.15a2.68,2.68,0,0,0,2.42,0l21.59-12.52Z" style="fill: #2E3CDB; transform-origin: 167.91px 289.428px;" id="el216a70vufck" class="animable"></path><g id="el55s985qecku"><g style="opacity: 0.4; transform-origin: 167.1px 289.305px;" class="animable" id="elffd2o0ghtxf"><path d="M156.94,292.7a3.94,3.94,0,0,1,3.84-.15c1.15.66,1.1,1.58-.13,2.29l-1.06.61,1.42.82-.94.54-5.13-3Zm2.24,2.52.86-.5c.84-.48.76-1-.23-1.61a2.57,2.57,0,0,0-2.67-.06l-.86.49Z" id="elojpc1dhr57" class="animable" style="transform-origin: 158.274px 294.466px;"></path><path d="M159.8,291l2.13-1.22a3.51,3.51,0,0,1,3.33-.24.94.94,0,0,1,.2,1.67,4.08,4.08,0,0,1,1-.05l2.51.19-.57.76-2.41-.27a2.79,2.79,0,0,0-1.92.2l-.29.17,2.09,1.21-.95.54Zm1.36-.31,2.22,1.29,1.08-.63c.6-.34.53-.84-.16-1.24a2,2,0,0,0-2.11,0Z" id="elbrf5waagg4v" class="animable" style="transform-origin: 164.385px 291.595px;"></path><path d="M165.69,287.64l5.13,3-.94.54-5.13-3Z" id="el90v77q0ws7q" class="animable" style="transform-origin: 167.785px 289.41px;"></path><path d="M167.51,286.59l6.25.6.22,0h0l-1.54-.89c-.69-.4-2-1-2.36-1.2l.67-.39,5.13,3-.65.38-6.37-.61-.34-.05h0l1.7,1,2.22,1.28-.62.36c-.39-.23-1.43-.93-2.12-1.32L166.77,287Z" id="el4x5cs5h46gv" class="animable" style="transform-origin: 171.325px 287.39px;"></path><path d="M175.82,281.8l.52.3c-.34.19-1.32.62-1.8.9l4.72,2.73-.95.55-4.72-2.73c-.49.28-1.23.84-1.57,1l-.52-.3Z" id="elp5ki9ccfcl" class="animable" style="transform-origin: 175.38px 284.04px;"></path></g></g></g><g id="freepik--Invoice--inject-8" class="animable" style="transform-origin: 303.515px 353.31px;"><path d="M205.79,348.23a77.72,77.72,0,0,1,27.76,11.23,71.52,71.52,0,0,1,23.17,24.47h0a72.36,72.36,0,0,0,26.52,26.51l17.3,10V416l-17.3-10c-11-6.36-19.09-16.18-25.45-27.19h0c-5.7-9.86-14.66-17.64-24.24-23.79a78.41,78.41,0,0,0-24.81-10.63l-2.91,1.68Z" style="fill: rgb(224, 224, 224); transform-origin: 253.165px 382.415px;" id="el13szpb9lomj" class="animable"></path><g id="elrdwltiev6fj"><g style="opacity: 0.05; transform-origin: 253.165px 382.415px;" class="animable" id="elkajzdslzzdp"><path d="M205.79,348.23a77.72,77.72,0,0,1,27.76,11.23,71.52,71.52,0,0,1,23.17,24.47h0a72.36,72.36,0,0,0,26.52,26.51l17.3,10V416l-17.3-10c-11-6.36-19.09-16.18-25.45-27.19h0c-5.7-9.86-14.66-17.64-24.24-23.79a78.41,78.41,0,0,0-24.81-10.63l-2.91,1.68Z" id="elolzeclny93" class="animable" style="transform-origin: 253.165px 382.415px;"></path></g></g><polygon points="401.2 357.84 300.54 416.03 300.54 420.43 401.2 362.21 401.2 357.84" style="fill: rgb(235, 235, 235); transform-origin: 350.87px 389.135px;" id="elefeb860a43c" class="animable"></polygon><path d="M300.54,416l-17.3-10c-11-6.36-19.09-16.18-25.45-27.19h0c-5.7-9.86-14.66-17.64-24.24-23.79a78.41,78.41,0,0,0-24.81-10.63l100.63-58.21a78.73,78.73,0,0,1,24.84,10.64c9.59,6.15,18.27,14.31,24,24.18h0c6.36,11,14.72,20.44,25.73,26.8l17.3,10Z" style="fill: rgb(250, 250, 250); transform-origin: 304.99px 351.09px;" id="el6hnw4timhgo" class="animable"></path><path d="M227.75,344.21a.93.93,0,0,1-.47-1.74l59-34.15a.93.93,0,0,1,.93,1.61l-59,34.15A.9.9,0,0,1,227.75,344.21Z" style="fill: rgb(224, 224, 224); transform-origin: 257.23px 326.209px;" id="elpg4xjgjtx5" class="animable"></path><path d="M237.31,348.82a.94.94,0,0,1-.47-1.75l59-34.15a.93.93,0,0,1,.93,1.62l-59,34.15A.9.9,0,0,1,237.31,348.82Z" style="fill: rgb(224, 224, 224); transform-origin: 266.807px 330.809px;" id="elcvjt4voei6" class="animable"></path><path d="M246,354.37a.91.91,0,0,1-.81-.46.93.93,0,0,1,.34-1.28l59-34.15a.94.94,0,0,1,.94,1.62l-59,34.15A1,1,0,0,1,246,354.37Z" style="fill: rgb(224, 224, 224); transform-origin: 275.465px 336.381px;" id="elm8qz5zw5rc" class="animable"></path><path d="M254.42,361.21a.93.93,0,0,1-.46-1.74l59-34.15a.93.93,0,0,1,1.28.34,1,1,0,0,1-.35,1.28l-59,34.15A1,1,0,0,1,254.42,361.21Z" style="fill: rgb(224, 224, 224); transform-origin: 283.915px 343.201px;" id="elqbz9zkyg59f" class="animable"></path><path d="M261.75,369.15a.91.91,0,0,1-.81-.46.93.93,0,0,1,.34-1.28l59-34.15a.94.94,0,0,1,.94,1.62l-59,34.15A1,1,0,0,1,261.75,369.15Z" style="fill: rgb(224, 224, 224); transform-origin: 291.215px 351.16px;" id="el0s0pds0dxook" class="animable"></path><path d="M267.63,378.23a.93.93,0,0,1-.47-1.74l59-34.15a.93.93,0,0,1,.93,1.61l-59,34.16A1,1,0,0,1,267.63,378.23Z" style="fill: rgb(224, 224, 224); transform-origin: 297.11px 360.229px;" id="ely7bepmgq91e" class="animable"></path><path d="M273.88,387.11a.93.93,0,0,1-.47-1.74l59-34.15a.93.93,0,0,1,.93,1.61l-59,34.15A.9.9,0,0,1,273.88,387.11Z" style="fill: rgb(224, 224, 224); transform-origin: 303.36px 369.109px;" id="elwh62mb8bun" class="animable"></path><path d="M297.16,304a.91.91,0,0,1-.81-.46.93.93,0,0,1,.34-1.28l15.1-8.75a.93.93,0,0,1,.93,1.62l-15.1,8.75A1,1,0,0,1,297.16,304Z" style="fill: rgb(224, 224, 224); transform-origin: 304.704px 298.694px;" id="el5fw7l2bjenc" class="animable"></path><path d="M306.71,308.64a.93.93,0,0,1-.47-1.74l15.11-8.75a.93.93,0,1,1,.93,1.61l-15.1,8.76A1,1,0,0,1,306.71,308.64Z" style="fill: rgb(224, 224, 224); transform-origin: 314.267px 303.326px;" id="el86o1bigjcjx" class="animable"></path><path d="M315.39,314.2a.94.94,0,0,1-.81-.47.92.92,0,0,1,.34-1.27l15.1-8.75a.93.93,0,1,1,.94,1.61l-15.11,8.75A.84.84,0,0,1,315.39,314.2Z" style="fill: rgb(224, 224, 224); transform-origin: 322.937px 308.891px;" id="elehug3cwlcve" class="animable"></path><path d="M323.83,321a.94.94,0,0,1-.81-.47.92.92,0,0,1,.34-1.27l15.1-8.75a.93.93,0,1,1,.94,1.61l-15.11,8.75A.84.84,0,0,1,323.83,321Z" style="fill: rgb(224, 224, 224); transform-origin: 331.377px 315.691px;" id="elsrc0hnn0a9" class="animable"></path><path d="M331.15,329a.94.94,0,0,1-.81-.47.92.92,0,0,1,.34-1.27l15.1-8.75a.93.93,0,1,1,.94,1.61l-15.11,8.75A.84.84,0,0,1,331.15,329Z" style="fill: rgb(224, 224, 224); transform-origin: 338.699px 323.69px;" id="eliar2cjw2qyi" class="animable"></path><path d="M337,338.06a.93.93,0,0,1-.46-1.74l15.1-8.76a.93.93,0,0,1,.93,1.62l-15.1,8.75A.9.9,0,0,1,337,338.06Z" style="fill: rgb(224, 224, 224); transform-origin: 344.553px 332.748px;" id="elrxhl99r1yfg" class="animable"></path><path d="M343.28,346.94a1,1,0,0,1-.81-.47.94.94,0,0,1,.34-1.27l15.11-8.76a.93.93,0,0,1,.93,1.62l-15.1,8.75A.9.9,0,0,1,343.28,346.94Z" style="fill: rgb(224, 224, 224); transform-origin: 350.833px 341.629px;" id="el688bg30197w" class="animable"></path><path d="M359.29,350.88a13.24,13.24,0,0,1,4.76-.93,9.66,9.66,0,0,1,1.95.18,6.2,6.2,0,0,1,1.43.45c.19.1.27.21.26.34a.46.46,0,0,1-.26.34l-1.51.87a1.52,1.52,0,0,1-.69.23,3.35,3.35,0,0,1-.7,0,6.53,6.53,0,0,0-1.92,0,6.61,6.61,0,0,0-2.35.9,5.15,5.15,0,0,0-.95.68,2.35,2.35,0,0,0-.54.71.9.9,0,0,0,0,.66,1.09,1.09,0,0,0,.52.55,2.49,2.49,0,0,0,1,.33,4.64,4.64,0,0,0,1.31-.14,13.94,13.94,0,0,0,1.77-.54c.68-.24,1.51-.54,2.47-.9a24,24,0,0,1,2.84-.88,11.08,11.08,0,0,1,2.37-.32,7,7,0,0,1,2,.23,7.39,7.39,0,0,1,1.82.76,3.68,3.68,0,0,1,1.25,1.09,2.08,2.08,0,0,1,.38,1.3,2.81,2.81,0,0,1-.53,1.43,6.29,6.29,0,0,1-1.46,1.46l1.46.85a.35.35,0,0,1,0,.67l-1.74,1a1.16,1.16,0,0,1-.58.14,1.13,1.13,0,0,1-.58-.14l-1.47-.85a14.11,14.11,0,0,1-2.33.76,14.26,14.26,0,0,1-2.35.36,10.82,10.82,0,0,1-2.22-.1,6.52,6.52,0,0,1-1.93-.62c-.18-.09-.27-.2-.26-.33a.46.46,0,0,1,.26-.34l1.51-.87A1.87,1.87,0,0,1,365,360a2.52,2.52,0,0,1,.71,0,8.48,8.48,0,0,0,.93.11,4.4,4.4,0,0,0,1.07-.05,8.14,8.14,0,0,0,1.27-.32,9.5,9.5,0,0,0,1.51-.71,9.6,9.6,0,0,0,1.15-.78,2.9,2.9,0,0,0,.73-.79,1.21,1.21,0,0,0,.18-.75,1,1,0,0,0-.55-.64,2.16,2.16,0,0,0-1.08-.27,5.2,5.2,0,0,0-1.43.23c-.55.15-1.2.36-1.93.64s-1.59.58-2.58.92a22.42,22.42,0,0,1-2.5.73,11.1,11.1,0,0,1-2.21.27,7.44,7.44,0,0,1-3.93-1.07,3.49,3.49,0,0,1-1.23-1.08,2.31,2.31,0,0,1-.38-1.25,2.53,2.53,0,0,1,.42-1.34,5.51,5.51,0,0,1,1.19-1.32l-1.46-.85a.35.35,0,0,1,0-.67l1.74-1a1.16,1.16,0,0,1,.58-.13,1.13,1.13,0,0,1,.58.13Z" style="fill: #2E3CDB; transform-origin: 365.567px 356.183px;" id="elomcx9qqcfyj" class="animable"></path><polygon points="314.5 381.89 325.13 388.02 326.65 387.14 316.02 381.01 314.5 381.89" style="fill: rgb(69, 90, 100); transform-origin: 320.575px 384.515px;" id="el9u8lk0tlkse" class="animable"></polygon><polygon points="326.3 375.08 336.93 381.21 338.45 380.33 327.82 374.19 326.3 375.08" style="fill: rgb(69, 90, 100); transform-origin: 332.375px 377.7px;" id="el1m5zll4vr5f" class="animable"></polygon><polygon points="336.2 369.36 346.83 375.5 347.82 374.93 337.19 368.79 336.2 369.36" style="fill: rgb(69, 90, 100); transform-origin: 342.01px 372.145px;" id="elhly0hu9k24o" class="animable"></polygon><polygon points="320.56 378.39 331.19 384.53 331.95 384.09 321.32 377.95 320.56 378.39" style="fill: rgb(69, 90, 100); transform-origin: 326.255px 381.24px;" id="elcmvxk3r8v8r" class="animable"></polygon><polygon points="328.88 373.58 339.51 379.72 340.27 379.28 329.64 373.14 328.88 373.58" style="fill: rgb(69, 90, 100); transform-origin: 334.575px 376.43px;" id="elr41a9zhfxr" class="animable"></polygon><polygon points="334.25 370.49 344.88 376.62 345.64 376.18 335.01 370.04 334.25 370.49" style="fill: rgb(69, 90, 100); transform-origin: 339.945px 373.33px;" id="el4a96l1y7rcw" class="animable"></polygon><polygon points="317.21 380.32 327.84 386.46 330.55 384.89 319.92 378.76 317.21 380.32" style="fill: rgb(69, 90, 100); transform-origin: 323.88px 382.61px;" id="el3g5m1bzwz0g" class="animable"></polygon><polygon points="322.63 377.19 333.26 383.33 335.98 381.76 325.35 375.62 322.63 377.19" style="fill: rgb(69, 90, 100); transform-origin: 329.305px 379.475px;" id="elalnbq58hvyn" class="animable"></polygon><polygon points="330.77 372.49 341.4 378.63 343.26 377.56 332.63 371.42 330.77 372.49" style="fill: rgb(69, 90, 100); transform-origin: 337.015px 375.025px;" id="eldai0g4lpjnw" class="animable"></polygon><polygon points="289.32 396.42 299.95 402.56 301.48 401.68 290.85 395.54 289.32 396.42" style="fill: rgb(69, 90, 100); transform-origin: 295.4px 399.05px;" id="elgjagmmks76h" class="animable"></polygon><polygon points="301.12 389.61 311.75 395.75 313.28 394.87 302.65 388.73 301.12 389.61" style="fill: rgb(69, 90, 100); transform-origin: 307.2px 392.24px;" id="elwmljhv3bgb" class="animable"></polygon><polygon points="311.02 383.89 321.65 390.03 323.18 389.15 312.55 383.01 311.02 383.89" style="fill: rgb(69, 90, 100); transform-origin: 317.1px 386.52px;" id="elbmmradpdf87" class="animable"></polygon><polygon points="295.38 392.93 306.01 399.06 306.77 398.62 296.14 392.49 295.38 392.93" style="fill: rgb(69, 90, 100); transform-origin: 301.075px 395.775px;" id="el8slr3c66vj9" class="animable"></polygon><polygon points="303.64 388.15 314.27 394.29 315.04 393.85 304.41 387.71 303.64 388.15" style="fill: rgb(69, 90, 100); transform-origin: 309.34px 391px;" id="elms20uyus42q" class="animable"></polygon><polygon points="309.07 385.02 319.7 391.16 320.47 390.72 309.84 384.58 309.07 385.02" style="fill: rgb(69, 90, 100); transform-origin: 314.77px 387.87px;" id="elzbsu3te0yf" class="animable"></polygon><polygon points="292.03 394.86 302.66 401 304.67 399.84 294.04 393.7 292.03 394.86" style="fill: rgb(69, 90, 100); transform-origin: 298.35px 397.35px;" id="el6onn9lhlwzs" class="animable"></polygon><polygon points="297.46 391.73 308.09 397.86 310.3 396.59 299.67 390.45 297.46 391.73" style="fill: rgb(69, 90, 100); transform-origin: 303.88px 394.155px;" id="elg5wd3w7b4z" class="animable"></polygon><polygon points="305.69 386.97 316.32 393.11 318.41 391.91 307.78 385.78 305.69 386.97" style="fill: rgb(69, 90, 100); transform-origin: 312.05px 389.445px;" id="elhqk8tyqy3pa" class="animable"></polygon><polygon points="338.71 367.91 349.34 374.04 350.87 373.16 340.24 367.02 338.71 367.91" style="fill: rgb(69, 90, 100); transform-origin: 344.79px 370.53px;" id="el57wchm3ehld" class="animable"></polygon><polygon points="341.5 366.3 352.13 372.44 352.89 372 342.26 365.86 341.5 366.3" style="fill: rgb(69, 90, 100); transform-origin: 347.195px 369.15px;" id="elxwi4z7kb63" class="animable"></polygon><polygon points="346.67 363.32 357.3 369.45 358.06 369.01 347.43 362.88 346.67 363.32" style="fill: rgb(69, 90, 100); transform-origin: 352.365px 366.165px;" id="elf0e5uv5wtyj" class="animable"></polygon><polygon points="343.72 365.02 354.35 371.15 356.53 369.89 345.9 363.76 343.72 365.02" style="fill: rgb(69, 90, 100); transform-origin: 350.125px 367.455px;" id="el6gxlfde1nu5" class="animable"></polygon></g></g></g><g id="freepik--Coins--inject-8" class="animable" style="transform-origin: 208.48px 427.996px;"><g id="freepik--coins--inject-8" class="animable" style="transform-origin: 208.48px 427.996px;"><path d="M231.93,429.2a16.53,16.53,0,0,0-6.12-5.66c-10-5.77-26.2-5.77-36.19,0a16.53,16.53,0,0,0-6.12,5.66h-1.38v5.23h0c.18,3.63,2.67,7.24,7.48,10,10,5.77,26.2,5.77,36.19,0,4.81-2.77,7.31-6.38,7.5-10h0V429.2Z" style="fill: #2E3CDB; transform-origin: 207.705px 433.985px;" id="elecxpuiz3aet" class="animable"></path><g id="elx83pb0gsf4p"><g style="opacity: 0.25; transform-origin: 207.705px 433.985px;" class="animable" id="elktrx1txuyp"><path d="M231.93,429.2a16.53,16.53,0,0,0-6.12-5.66c-10-5.77-26.2-5.77-36.19,0a16.53,16.53,0,0,0-6.12,5.66h-1.38v5.23h0c.18,3.63,2.67,7.24,7.48,10,10,5.77,26.2,5.77,36.19,0,4.81-2.77,7.31-6.38,7.5-10h0V429.2Z" id="elfveo8kzydal" class="animable" style="transform-origin: 207.705px 433.985px;"></path></g></g><g id="elnlv9iu8dmu"><path d="M207.72,419.22c-6.56,0-13.11,1.44-18.1,4.32a16.53,16.53,0,0,0-6.12,5.66h-1.38v5.23h0c.18,3.63,2.67,7.24,7.48,10,5,2.89,11.54,4.33,18.1,4.33Z" style="opacity: 0.1; transform-origin: 194.92px 433.99px;" class="animable" id="elr8dhso4ks5f"></path></g><g id="elulqz9pqm6uj"><path d="M193.73,421.62a27.66,27.66,0,0,0-4.11,1.92,16.53,16.53,0,0,0-6.12,5.66h-1.38v5.23h0c.18,3.63,2.67,7.24,7.48,10a27.7,27.7,0,0,0,4.11,1.93Z" style="opacity: 0.1; transform-origin: 187.925px 433.99px;" class="animable" id="elfnuh8inu7ls"></path></g><path d="M221.69,421.62a27.78,27.78,0,0,1,4.12,1.92,16.53,16.53,0,0,1,6.12,5.66h1.38v5.23h0c-.19,3.63-2.69,7.24-7.5,10a27.82,27.82,0,0,1-4.12,1.93Z" style="fill: #2E3CDB; transform-origin: 227.5px 433.99px;" id="el49kgvanc8kb" class="animable"></path><path d="M225.81,418.75c-10-5.77-26.2-5.77-36.19,0s-10,15.13,0,20.9,26.2,5.77,36.19,0S235.81,424.52,225.81,418.75Z" style="fill: #2E3CDB; transform-origin: 207.715px 429.2px;" id="el6ems74hmu6n" class="animable"></path><g id="elhqrgk3y2qbv"><path d="M225.81,418.75c-10-5.77-26.2-5.77-36.19,0s-10,15.13,0,20.9,26.2,5.77,36.19,0S235.81,424.52,225.81,418.75Z" style="opacity: 0.2; transform-origin: 207.715px 429.2px;" class="animable" id="el9ywl041rqup"></path></g><path d="M219.5,422.58a28.82,28.82,0,0,0-23.57,0c-3.35,1.71-5.2,4.07-5.2,6.62s1.85,4.91,5.2,6.63a28.92,28.92,0,0,0,23.57,0c3.35-1.72,5.19-4.07,5.19-6.63S222.85,424.29,219.5,422.58Z" style="fill: #2E3CDB; transform-origin: 207.71px 429.2px;" id="elpzl1r5zzejp" class="animable"></path><g id="elc2i01aoqh4l"><path d="M219.5,422.58a28.82,28.82,0,0,0-23.57,0c-3.35,1.71-5.2,4.07-5.2,6.62s1.85,4.91,5.2,6.63a28.92,28.92,0,0,0,23.57,0c3.35-1.72,5.19-4.07,5.19-6.63S222.85,424.29,219.5,422.58Z" style="opacity: 0.4; transform-origin: 207.71px 429.2px;" class="animable" id="el7hoy1g79029"></path></g><path d="M225.26,419.72c-4.67-2.7-10.9-4.18-17.55-4.18s-12.87,1.48-17.54,4.18c-4.47,2.58-6.94,5.95-6.94,9.48s2.47,6.9,6.94,9.49c4.67,2.69,10.9,4.17,17.54,4.17s12.88-1.48,17.55-4.17c4.47-2.59,6.94-6,6.94-9.49S229.73,422.3,225.26,419.72Zm-5.76,16.11a28.92,28.92,0,0,1-23.57,0c-3.35-1.72-5.2-4.07-5.2-6.63s1.85-4.91,5.2-6.62a28.82,28.82,0,0,1,23.57,0c3.35,1.71,5.19,4.07,5.19,6.62S222.85,434.11,219.5,435.83Z" style="fill: #2E3CDB; transform-origin: 207.715px 429.2px;" id="el3tpt3hq48to" class="animable"></path><g id="elyrgkn1vmdp"><ellipse cx="207.71" cy="429.2" rx="16.1" ry="8.26" style="opacity: 0.2; transform-origin: 207.71px 429.2px;" class="animable" id="el3nzl7pelkxl"></ellipse></g><ellipse cx="207.71" cy="429.2" rx="16.1" ry="8.26" style="fill: #2E3CDB; transform-origin: 207.71px 429.2px;" id="elpfuhzm7kmp" class="animable"></ellipse><g id="elxtbujm7vz3s"><ellipse cx="207.71" cy="429.2" rx="16.1" ry="8.26" style="opacity: 0.6; transform-origin: 207.71px 429.2px;" class="animable" id="elic6my1hjwe8"></ellipse></g><path d="M219.1,425.55c-6.29-3.23-16.48-3.23-22.77,0-2.6,1.33-4.12,3-4.57,4.74.45,1.74,2,3.42,4.57,4.75,6.29,3.23,16.48,3.23,22.77,0,2.6-1.33,4.12-3,4.57-4.75C223.22,428.56,221.7,426.88,219.1,425.55Z" style="fill: #2E3CDB; transform-origin: 207.715px 430.295px;" id="elt9scgtfkpf" class="animable"></path><g id="eljm20e8pjn2i"><path d="M219.1,425.55c-6.29-3.23-16.48-3.23-22.77,0-2.6,1.33-4.12,3-4.57,4.74.45,1.74,2,3.42,4.57,4.75,6.29,3.23,16.48,3.23,22.77,0,2.6-1.33,4.12-3,4.57-4.75C223.22,428.56,221.7,426.88,219.1,425.55Z" style="opacity: 0.5; transform-origin: 207.715px 430.295px;" class="animable" id="eljgjvfihzbsc"></path></g><polygon points="209.24 423.48 209.24 425.85 208.43 426.69 206.94 428.26 206.94 425.8 209.24 423.48" style="fill: #2E3CDB; transform-origin: 208.09px 425.87px;" id="elxnio1v4sbqs" class="animable"></polygon><g id="elngu02hni0mh"><polygon points="209.24 423.48 209.24 425.85 208.43 426.69 206.94 428.26 206.94 425.8 209.24 423.48" style="opacity: 0.3; transform-origin: 208.09px 425.87px;" class="animable" id="eldgag63dpvui"></polygon></g><path d="M206.94,425.8v1.39a12.69,12.69,0,0,1-2.29.65,2.26,2.26,0,0,1-1,0,2.11,2.11,0,0,1-.47-.19c-.57-.34-.66-.84.42-1.46A3.76,3.76,0,0,1,206.94,425.8Z" style="fill: #2E3CDB; transform-origin: 204.852px 426.736px;" id="elkuor9w9vkv7" class="animable"></path><g id="el9mtw2aylcn"><path d="M206.94,425.8v1.39a12.69,12.69,0,0,1-2.29.65,2.26,2.26,0,0,1-1,0,2.11,2.11,0,0,1-.47-.19c-.57-.34-.66-.84.42-1.46A3.76,3.76,0,0,1,206.94,425.8Z" style="opacity: 0.45; transform-origin: 204.852px 426.736px;" class="animable" id="elh5xz0454ou8"></path></g><path d="M217.63,432.5v2L215.05,436l-1.91-1.11a9.76,9.76,0,0,1-7.4.34v-2l1.18-1.17-1.18.33a7.57,7.57,0,0,1-5.76-.66c-1.16-.67-1.69-1.4-1.69-2.15v-2l.21-.87-.71-.41v-2l1.92,1.1a3,3,0,0,0-1.42,2.19v0c0,.73.56,1.44,1.69,2.09,2.51,1.45,5,1,7.28.24,2.12-.69,3.66-1.5,4.89-.8.75.44.52,1-.33,1.47a4.26,4.26,0,0,1-3.64.21l-2.44,2.42a8.9,8.9,0,0,0,1.35.39,10.07,10.07,0,0,0,6-.72l1.91,1.1Z" style="fill: #2E3CDB; transform-origin: 207.71px 430.15px;" id="ell98mtubv8m" class="animable"></path><g id="elc4017wd0ecb"><path d="M198.29,427.56v0c0,.73.56,1.44,1.69,2.09,2.51,1.45,5,1,7.28.24,2.12-.69,3.66-1.5,4.89-.8.75.44.52,1-.33,1.47a4.26,4.26,0,0,1-3.64.21l-2.44,2.42a8.9,8.9,0,0,0,1.35.39,10.07,10.07,0,0,0,6-.72l1.91,1.1,2.58-1.49v2L215.05,436l-1.91-1.11a9.76,9.76,0,0,1-7.4.34v-2l1.18-1.17-1.18.33a7.57,7.57,0,0,1-5.76-.66c-1.16-.67-1.69-1.4-1.69-2.15v-2l.21-.87" style="opacity: 0.35; transform-origin: 207.935px 431.355px;" class="animable" id="elcd7r2mu7x88"></path></g><g id="elzsjky8jbyxe"><path d="M197.8,424.27v2l.7.41h0a4.1,4.1,0,0,1,1.21-1.35Z" style="opacity: 0.45; transform-origin: 198.755px 425.475px;" class="animable" id="ell75egpyw6v"></path></g><path d="M217.2,431.17a2.4,2.4,0,0,1-.19,1l-1.3-.74a2.53,2.53,0,0,0,1.47-2C217.19,430,217.2,431.11,217.2,431.17Z" style="fill: #2E3CDB; transform-origin: 216.455px 430.8px;" id="eldf9b6prv41p" class="animable"></path><g id="elznj3ufvm26"><g style="opacity: 0.3; transform-origin: 216.455px 430.8px;" class="animable" id="elvlod014jnri"><path d="M217.2,431.17a2.4,2.4,0,0,1-.19,1l-1.3-.74a2.53,2.53,0,0,0,1.47-2C217.19,430,217.2,431.11,217.2,431.17Z" id="elqchwnypb3ah" class="animable" style="transform-origin: 216.455px 430.8px;"></path></g></g><path d="M217.2,432.25l-1.48-.85a2.52,2.52,0,0,0,1.48-2.27,1.36,1.36,0,0,0,0-.2c-.06-.7-.58-1.38-1.65-2h0a6.7,6.7,0,0,0-3.43-.9h-.33l-.31,0-.26,0h-.11l-.21,0a13,13,0,0,0-1.67.35c-.26.07-.52.14-.78.23l-1.08.35-.41.14a12.69,12.69,0,0,1-2.29.65,2.26,2.26,0,0,1-1,0,1.86,1.86,0,0,1-.46-.19c-.58-.33-.67-.84.41-1.46a3.76,3.76,0,0,1,3.32-.35l2.3-2.32a9.87,9.87,0,0,0-6.93.39l-1.91-1.1-2.6,1.5,1.91,1.1a2.91,2.91,0,0,0-1.42,2.2h0c0,.74.56,1.45,1.69,2.1,2.52,1.45,5,1,7.28.24,2.12-.69,3.66-1.5,4.88-.8.76.44.53,1-.32,1.46a4.23,4.23,0,0,1-3.64.22l-2.44,2.42a10.29,10.29,0,0,0,1.35.4,9.45,9.45,0,0,0,2.35.17,11.11,11.11,0,0,0,3.69-.9l1.92,1.1,2.57-1.49Z" style="fill: #2E3CDB; transform-origin: 207.71px 428.325px;" id="elp59x9a2r3z" class="animable"></path><polygon points="213.13 432.89 213.13 434.93 215.05 436.03 215.05 433.99 213.13 432.89" style="fill: #2E3CDB; transform-origin: 214.09px 434.46px;" id="elys9va7r3hq" class="animable"></polygon><g id="eleh7chiivd9v"><polygon points="213.13 432.89 213.13 434.93 215.05 436.03 215.05 433.99 213.13 432.89" style="opacity: 0.45; transform-origin: 214.09px 434.46px;" class="animable" id="eltv6fy2o9lqh"></polygon></g><polygon points="197.79 424.27 200.4 422.77 202.31 423.87 200.41 423.07 197.79 424.27" style="fill: rgb(245, 245, 245); transform-origin: 200.05px 423.52px;" id="elx2wav3wop1p" class="animable"></polygon><path d="M203.62,426.15a3.76,3.76,0,0,1,3.32-.35l2.3-2.32-2.3,2.08A3.47,3.47,0,0,0,203.62,426.15Z" style="fill: rgb(245, 245, 245); transform-origin: 206.43px 424.815px;" id="elc7fmpd2p4m9" class="animable"></path><path d="M205.74,433.22a10.29,10.29,0,0,0,1.35.4,9.45,9.45,0,0,0,2.35.17,8.17,8.17,0,0,1-3.31-.67l2.05-2.32Z" style="fill: rgb(245, 245, 245); transform-origin: 207.59px 432.302px;" id="eloay6ya9vc1e" class="animable"></path><polygon points="213.13 432.89 215.05 433.75 217.62 432.5 215.05 433.99 213.13 432.89" style="fill: rgb(245, 245, 245); transform-origin: 215.375px 433.245px;" id="elxx2paebcd5" class="animable"></polygon><path d="M190.37,420.06c6.78-4.12,17.34-4.52,17.34-4.52-6.64,0-12.87,1.48-17.54,4.18-4.47,2.58-6.94,5.95-6.94,9.48C183.23,429.2,183.48,424.25,190.37,420.06Z" style="fill: rgb(245, 245, 245); transform-origin: 195.47px 422.37px;" id="elj6m8v227p7" class="animable"></path><path d="M205.74,443.93c7.19.32,14.57-1.1,20.07-4.28,5.72-3.3,8.17-7.78,7.34-12.09,0,0,1.07,7-7.77,11.83S205.74,443.93,205.74,443.93Z" style="fill: rgb(245, 245, 245); transform-origin: 219.524px 435.767px;" id="elx2ous3df0di" class="animable"></path><path d="M233.45,422a16.48,16.48,0,0,0-6.11-5.65c-10-5.77-26.2-5.77-36.2,0A16.55,16.55,0,0,0,185,422h-1.38v5.23h0c.18,3.64,2.67,7.24,7.47,10,10,5.77,26.21,5.77,36.2,0,4.81-2.78,7.31-6.38,7.5-10h0V422Z" style="fill: #2E3CDB; transform-origin: 209.205px 426.79px;" id="el12h8ivg5fr2q" class="animable"></path><g id="elcl5zy4oi4mp"><g style="opacity: 0.25; transform-origin: 209.205px 426.79px;" class="animable" id="elw0uuxkctmt"><path d="M233.45,422a16.48,16.48,0,0,0-6.11-5.65c-10-5.77-26.2-5.77-36.2,0A16.55,16.55,0,0,0,185,422h-1.38v5.23h0c.18,3.64,2.67,7.24,7.47,10,10,5.77,26.21,5.77,36.2,0,4.81-2.78,7.31-6.38,7.5-10h0V422Z" id="elem3bg62gsnh" class="animable" style="transform-origin: 209.205px 426.79px;"></path></g></g><g id="elo40eb9i1vxc"><path d="M209.24,412c-6.55,0-13.1,1.44-18.1,4.33A16.55,16.55,0,0,0,185,422h-1.38v5.23h0c.18,3.64,2.67,7.24,7.47,10,5,2.88,11.55,4.32,18.1,4.32Z" style="opacity: 0.1; transform-origin: 196.43px 426.775px;" class="animable" id="elp7awqft3y3k"></path></g><g id="elswmrx8dtzon"><path d="M195.26,414.43a28.3,28.3,0,0,0-4.12,1.93A16.55,16.55,0,0,0,185,422h-1.38v5.23h0c.18,3.64,2.67,7.24,7.47,10a29.39,29.39,0,0,0,4.12,1.93Z" style="opacity: 0.1; transform-origin: 189.44px 426.795px;" class="animable" id="elmwau3d5wg9k"></path></g><path d="M223.22,414.43a27.82,27.82,0,0,1,4.12,1.93,16.55,16.55,0,0,1,6.11,5.65h1.39v5.23h0c-.19,3.64-2.69,7.24-7.5,10a28.87,28.87,0,0,1-4.12,1.93Z" style="fill: #2E3CDB; transform-origin: 229.03px 426.8px;" id="elcbxg54ft45c" class="animable"></path><path d="M227.34,411.56c-10-5.77-26.2-5.77-36.2,0s-10,15.13,0,20.9,26.21,5.77,36.2,0S237.34,417.34,227.34,411.56Z" style="fill: #2E3CDB; transform-origin: 209.238px 422.01px;" id="elzckbtipt5m" class="animable"></path><g id="elxvu5jk0vj5c"><path d="M227.34,411.56c-10-5.77-26.2-5.77-36.2,0s-10,15.13,0,20.9,26.21,5.77,36.2,0S237.34,417.34,227.34,411.56Z" style="opacity: 0.2; transform-origin: 209.238px 422.01px;" class="animable" id="el7i0figoh7ot"></path></g><path d="M221,415.39a28.82,28.82,0,0,0-23.57,0c-3.35,1.72-5.2,4.07-5.2,6.63s1.85,4.9,5.2,6.62a28.82,28.82,0,0,0,23.57,0c3.35-1.72,5.19-4.07,5.19-6.62S224.38,417.11,221,415.39Z" style="fill: #2E3CDB; transform-origin: 209.21px 422.015px;" id="ela92pqnt94rs" class="animable"></path><g id="ela61fmznle05"><path d="M221,415.39a28.82,28.82,0,0,0-23.57,0c-3.35,1.72-5.2,4.07-5.2,6.63s1.85,4.9,5.2,6.62a28.82,28.82,0,0,0,23.57,0c3.35-1.72,5.19-4.07,5.19-6.62S224.38,417.11,221,415.39Z" style="opacity: 0.4; transform-origin: 209.21px 422.015px;" class="animable" id="elfwcwm25h7t"></path></g><path d="M226.78,412.53c-4.66-2.69-10.89-4.18-17.54-4.18s-12.87,1.49-17.54,4.18c-4.47,2.59-6.94,6-6.94,9.49s2.47,6.9,6.94,9.48c4.67,2.69,10.9,4.18,17.54,4.18s12.88-1.49,17.54-4.18c4.48-2.58,6.94-5.95,6.94-9.48S231.26,415.12,226.78,412.53ZM221,428.64a28.82,28.82,0,0,1-23.57,0c-3.35-1.72-5.2-4.07-5.2-6.62s1.85-4.91,5.2-6.63a28.82,28.82,0,0,1,23.57,0c3.35,1.72,5.19,4.07,5.19,6.63S224.38,426.92,221,428.64Z" style="fill: #2E3CDB; transform-origin: 209.24px 422.015px;" id="el18uid0gczq" class="animable"></path><g id="ela6e1kiax1d7"><ellipse cx="209.24" cy="422.01" rx="16.1" ry="8.26" style="opacity: 0.2; transform-origin: 209.24px 422.01px;" class="animable" id="elqqjdrjyc01h"></ellipse></g><ellipse cx="209.24" cy="422.01" rx="16.1" ry="8.26" style="fill: #2E3CDB; transform-origin: 209.24px 422.01px;" id="elb6nq6u8hnlr" class="animable"></ellipse><g id="elvka242939g"><ellipse cx="209.24" cy="422.01" rx="16.1" ry="8.26" style="opacity: 0.6; transform-origin: 209.24px 422.01px;" class="animable" id="elhcfeonx4d4f"></ellipse></g><path d="M220.63,418.36c-6.29-3.23-16.48-3.23-22.77,0-2.6,1.33-4.12,3-4.57,4.75.45,1.73,2,3.41,4.57,4.74,6.29,3.23,16.48,3.23,22.77,0,2.6-1.33,4.12-3,4.57-4.74C224.75,421.37,223.23,419.69,220.63,418.36Z" style="fill: #2E3CDB; transform-origin: 209.245px 423.105px;" id="el4jfpetkiy0i" class="animable"></path><g id="elkz2bkd4nxo"><path d="M220.63,418.36c-6.29-3.23-16.48-3.23-22.77,0-2.6,1.33-4.12,3-4.57,4.75.45,1.73,2,3.41,4.57,4.74,6.29,3.23,16.48,3.23,22.77,0,2.6-1.33,4.12-3,4.57-4.74C224.75,421.37,223.23,419.69,220.63,418.36Z" style="opacity: 0.5; transform-origin: 209.245px 423.105px;" class="animable" id="elhyv4aamwf6r"></path></g><polygon points="210.77 416.3 210.77 418.66 209.96 419.51 208.47 421.07 208.47 418.61 210.77 416.3" style="fill: #2E3CDB; transform-origin: 209.62px 418.685px;" id="el2oxq841fekt" class="animable"></polygon><g id="elub6i9ulkg1"><polygon points="210.77 416.3 210.77 418.66 209.96 419.51 208.47 421.07 208.47 418.61 210.77 416.3" style="opacity: 0.3; transform-origin: 209.62px 418.685px;" class="animable" id="eldpau5gpf7fs"></polygon></g><path d="M208.47,418.61V420a12.69,12.69,0,0,1-2.29.65,2.44,2.44,0,0,1-1,0,2.72,2.72,0,0,1-.47-.19c-.57-.34-.66-.85.42-1.47A3.8,3.8,0,0,1,208.47,418.61Z" style="fill: #2E3CDB; transform-origin: 206.382px 419.544px;" id="el4wmhr9mgfot" class="animable"></path><g id="eltl2cv7l29vo"><path d="M208.47,418.61V420a12.69,12.69,0,0,1-2.29.65,2.44,2.44,0,0,1-1,0,2.72,2.72,0,0,1-.47-.19c-.57-.34-.66-.85.42-1.47A3.8,3.8,0,0,1,208.47,418.61Z" style="opacity: 0.45; transform-origin: 206.382px 419.544px;" class="animable" id="el24esazxkdak"></path></g><path d="M219.16,425.31v2l-2.59,1.49-1.91-1.1a9.69,9.69,0,0,1-7.39.33v-2l1.17-1.16-1.17.32a7.53,7.53,0,0,1-5.76-.66c-1.16-.66-1.69-1.4-1.69-2.15v-2l.21-.87-.71-.41v-2l1.91,1.11a2.94,2.94,0,0,0-1.41,2.19v0c0,.73.56,1.44,1.69,2.1,2.51,1.45,5,1,7.28.24,2.12-.7,3.66-1.51,4.88-.8.76.43.53,1-.32,1.46a4.22,4.22,0,0,1-3.64.21L207.27,426a8.63,8.63,0,0,0,1.35.4,10,10,0,0,0,6-.73l1.91,1.1Z" style="fill: #2E3CDB; transform-origin: 209.24px 422.95px;" id="el8th810piy7" class="animable"></path><g id="elae0mn2rn05"><path d="M199.82,420.38v0c0,.73.56,1.44,1.69,2.1,2.51,1.45,5,1,7.28.24,2.12-.7,3.66-1.51,4.88-.8.76.43.53,1-.32,1.46a4.22,4.22,0,0,1-3.64.21L207.27,426a8.63,8.63,0,0,0,1.35.4,10,10,0,0,0,6-.73l1.91,1.1,2.59-1.49v2l-2.59,1.49-1.91-1.1a9.69,9.69,0,0,1-7.39.33v-2l1.17-1.16-1.17.32a7.53,7.53,0,0,1-5.76-.66c-1.16-.66-1.69-1.4-1.69-2.15v-2l.21-.87" style="opacity: 0.35; transform-origin: 209.45px 424.125px;" class="animable" id="elaec005yl538"></path></g><g id="el0ndn9ij1u8h"><path d="M199.32,417.08v2l.71.41h0a4.23,4.23,0,0,1,1.21-1.35Z" style="opacity: 0.45; transform-origin: 200.28px 418.285px;" class="animable" id="elsi0mo2e143"></path></g><path d="M218.73,424a2.5,2.5,0,0,1-.19,1l-1.3-.74a2.55,2.55,0,0,0,1.47-2C218.72,422.81,218.73,423.93,218.73,424Z" style="fill: #2E3CDB; transform-origin: 217.985px 423.63px;" id="elqq1f13i1izs" class="animable"></path><g id="elgk0zsivyte5"><g style="opacity: 0.3; transform-origin: 217.985px 423.63px;" class="animable" id="elziyfl4pkpoo"><path d="M218.73,424a2.5,2.5,0,0,1-.19,1l-1.3-.74a2.55,2.55,0,0,0,1.47-2C218.72,422.81,218.73,423.93,218.73,424Z" id="elt5gxfzwcig8" class="animable" style="transform-origin: 217.985px 423.63px;"></path></g></g><path d="M218.72,425.07l-1.47-.86a2.52,2.52,0,0,0,1.47-2.26,1.27,1.27,0,0,0,0-.2c-.06-.71-.58-1.39-1.65-2h0a6.8,6.8,0,0,0-3.43-.9h-.33l-.31,0-.27,0-.1,0-.21,0a15,15,0,0,0-1.67.35l-.78.23-1.08.35-.41.14a11.91,11.91,0,0,1-2.29.65,2.44,2.44,0,0,1-1,0,1.89,1.89,0,0,1-.46-.2c-.58-.33-.67-.83.41-1.46a3.76,3.76,0,0,1,3.32-.35l2.3-2.31a9.81,9.81,0,0,0-6.93.38l-1.91-1.1-2.61,1.5,1.92,1.1a2.94,2.94,0,0,0-1.42,2.2v0c0,.73.56,1.44,1.69,2.1,2.52,1.45,5,1,7.28.23,2.12-.69,3.66-1.5,4.88-.8.76.44.53,1-.32,1.47a4.22,4.22,0,0,1-3.64.21L207.27,426a8.74,8.74,0,0,0,3.7.57,10.7,10.7,0,0,0,3.69-.9l1.91,1.11,2.58-1.49Z" style="fill: #2E3CDB; transform-origin: 209.23px 421.155px;" id="el8h3f9rrnxoc" class="animable"></path><polygon points="214.66 425.7 214.66 427.74 216.57 428.84 216.57 426.8 214.66 425.7" style="fill: #2E3CDB; transform-origin: 215.615px 427.27px;" id="el829lukub2fr" class="animable"></polygon><g id="el9o0955h0kv"><polygon points="214.66 425.7 214.66 427.74 216.57 428.84 216.57 426.8 214.66 425.7" style="opacity: 0.45; transform-origin: 215.615px 427.27px;" class="animable" id="ell2pxyz3o54"></polygon></g><polygon points="199.32 417.08 201.93 415.58 203.84 416.68 201.94 415.89 199.32 417.08" style="fill: rgb(245, 245, 245); transform-origin: 201.58px 416.33px;" id="elwotewjbj08l" class="animable"></polygon><path d="M205.15,419a3.76,3.76,0,0,1,3.32-.35l2.3-2.31-2.3,2.07A3.5,3.5,0,0,0,205.15,419Z" style="fill: rgb(245, 245, 245); transform-origin: 207.96px 417.67px;" id="el02ckkh8h14q8" class="animable"></path><path d="M207.27,426a8.74,8.74,0,0,0,3.7.57,8.33,8.33,0,0,1-3.32-.66l2.06-2.33Z" style="fill: rgb(245, 245, 245); transform-origin: 209.12px 425.084px;" id="el6cqm3wxpjva" class="animable"></path><polygon points="214.66 425.7 216.57 426.56 219.15 425.32 216.57 426.8 214.66 425.7" style="fill: rgb(245, 245, 245); transform-origin: 216.905px 426.06px;" id="elwss1qcel3i" class="animable"></polygon><path d="M191.9,412.87c6.78-4.11,17.34-4.52,17.34-4.52-6.64,0-12.87,1.49-17.54,4.18-4.47,2.59-6.94,6-6.94,9.49C184.76,422,185,417.06,191.9,412.87Z" style="fill: rgb(245, 245, 245); transform-origin: 197px 415.185px;" id="elolrdfa90rv" class="animable"></path><path d="M207.27,436.75c7.19.32,14.57-1.11,20.07-4.29,5.72-3.3,8.17-7.78,7.34-12.08,0,0,1.07,7-7.77,11.82S207.27,436.75,207.27,436.75Z" style="fill: rgb(245, 245, 245); transform-origin: 221.054px 428.587px;" id="elvco8pm4jyk" class="animable"></path></g></g><g id="freepik--Money--inject-8" class="animable" style="transform-origin: 114.405px 384.9px;"><g id="freepik--money--inject-8" class="animable" style="transform-origin: 114.405px 384.9px;"><polygon points="184.87 392.75 90.92 338.51 43.95 365.63 137.89 419.87 184.87 392.75" style="fill: #2E3CDB; transform-origin: 114.41px 379.19px;" id="elavgfz54ce1h" class="animable"></polygon><g id="ellbfx71bjg7"><path d="M48.89,365.63l89,51.38,42-24.26-89-51.39Zm2.47,0,39.56-22.84,86.53,50-39.56,22.83Z" style="opacity: 0.4; transform-origin: 114.39px 379.185px;" class="animable" id="eltbg0bg5u74p"></path></g><g id="el4rbjtjmspus"><g style="opacity: 0.4; transform-origin: 114.445px 379.189px;" class="animable" id="eld11hfhtqjo"><path d="M116.16,393.23a37,37,0,0,1-18-4.4h0c-4.93-2.84-7.75-6.73-7.75-10.65,0-3.6,2.31-6.92,6.52-9.35,9-5.18,24.14-4.86,33.79.72,4.93,2.84,7.76,6.73,7.76,10.65,0,3.6-2.31,6.92-6.52,9.35S122,393.23,116.16,393.23ZM112.65,366c-5.66,0-11.18,1.18-15.34,3.58-3.93,2.27-6.1,5.33-6.1,8.62,0,3.61,2.67,7.23,7.34,9.92h0c9.42,5.45,24.2,5.77,33,.72,3.93-2.27,6.1-5.33,6.1-8.62,0-3.61-2.67-7.23-7.34-9.92A36,36,0,0,0,112.65,366Z" id="elk8q6n9wv1pg" class="animable" style="transform-origin: 114.445px 379.189px;"></path></g></g><g id="elrp3rdnmx65r"><g style="opacity: 0.2; transform-origin: 114.405px 379.2px;" class="animable" id="elkvizcj25li"><path d="M116.16,390.2a34,34,0,0,1-16.51-4c-4-2.29-6.24-5.21-6.24-8,0-2.47,1.78-4.85,5-6.71a29.08,29.08,0,0,1,14.24-3.29,34.05,34.05,0,0,1,16.51,4c4,2.29,6.24,5.21,6.24,8,0,2.47-1.78,4.85-5,6.71A29.11,29.11,0,0,1,116.16,390.2Z" id="elj2x8usr2ued" class="animable" style="transform-origin: 114.405px 379.2px;"></path></g></g><g id="elvbo7h25als"><path d="M133,410.57l-25.83-15,2.07.26a43.06,43.06,0,0,0,5.57.36,39.3,39.3,0,0,0,18-4.73c4.57-2.64,9.18-7.36,9.18-12a11,11,0,0,0-1-4.63l-.55-1.21,28.28,16.42-3.1,1.79c-.53.31-.82.68-.82,1.06s.29.76.82,1.07l3.11,1.79-25.76,14.77L140.16,409a5.05,5.05,0,0,0-4.53,0Z" style="opacity: 0.2; transform-origin: 137.95px 392.095px;" class="animable" id="el0igvyenearei"></path></g><path d="M144.31,400.08A8.81,8.81,0,0,1,140,399a3.33,3.33,0,0,1-1.94-2.73,2.88,2.88,0,0,1,1.66-2.43,9,9,0,0,1,8.1.16,3.36,3.36,0,0,1,2,2.74,2.89,2.89,0,0,1-1.67,2.43A7.75,7.75,0,0,1,144.31,400.08Z" style="fill: #2E3CDB; transform-origin: 143.94px 396.519px;" id="el8jh2iu4wrpo" class="animable"></path><g id="el2m7dafp4er2"><path d="M88.56,384.69,60.34,368.43l3.1-1.79a1.35,1.35,0,0,0,.81-1.07c0-.38-.29-.75-.81-1.05l-3.1-1.8,25.71-14.65,2.68,1.55a5.06,5.06,0,0,0,4.52,0l2.68-1.55,25.82,14.86-2.09-.27a44.82,44.82,0,0,0-5.58-.36,39.62,39.62,0,0,0-18.18,4.6c-6,3.44-9,7.12-9,11A16.1,16.1,0,0,0,88,383.49Z" style="opacity: 0.2; transform-origin: 91.045px 366.38px;" class="animable" id="el9c5sjjlcrch"></path></g><path d="M85.19,366.09A8.82,8.82,0,0,1,80.88,365h0a3.35,3.35,0,0,1-1.95-2.73,2.88,2.88,0,0,1,1.67-2.43,9,9,0,0,1,8.1.17,3.36,3.36,0,0,1,1.94,2.73A2.88,2.88,0,0,1,89,365.2,7.78,7.78,0,0,1,85.19,366.09Z" style="fill: #2E3CDB; transform-origin: 84.785px 362.526px;" id="elsqsfrb4zhul" class="animable"></path><polygon points="184.87 392.75 184.87 404.17 137.89 431.29 137.89 419.87 184.87 392.75" style="fill: #2E3CDB; transform-origin: 161.38px 412.02px;" id="elhxo0wzr7scn" class="animable"></polygon><g id="elqx6evv24p9"><g style="opacity: 0.1; transform-origin: 161.38px 412.02px;" class="animable" id="elkmd2hxrde5"><polygon points="184.87 392.75 184.87 404.17 137.89 431.29 137.89 419.87 184.87 392.75" id="el7ytzv6p9wpi" class="animable" style="transform-origin: 161.38px 412.02px;"></polygon></g></g><g id="elycuufsxseht"><g style="opacity: 0.1; transform-origin: 161.375px 412.1px;" class="animable" id="el3ra0p52c03"><polygon points="137.89 422.41 152.72 414.16 137.89 423.11 137.89 422.41" id="elogreic8h99m" class="animable" style="transform-origin: 145.305px 418.635px;"></polygon><polygon points="184.86 398.17 179.92 401.31 184.86 398.75 184.86 398.17" id="el3z6xyoxwnmb" class="animable" style="transform-origin: 182.39px 399.74px;"></polygon><polygon points="184.86 400.89 160.15 415.58 184.86 401.73 184.86 400.89" id="eliivf0xig208" class="animable" style="transform-origin: 172.505px 408.235px;"></polygon><polygon points="137.89 425.13 162.61 411.31 137.89 426.03 137.89 425.13" id="el87r8n8azpfi" class="animable" style="transform-origin: 150.25px 418.67px;"></polygon></g></g><polygon points="137.89 431.29 43.94 377.05 43.95 365.63 137.89 419.87 137.89 431.29" style="fill: #2E3CDB; transform-origin: 90.915px 398.46px;" id="eliqvrqq0nhak" class="animable"></polygon><g id="elh6sbg9qsij"><g style="opacity: 0.2; transform-origin: 90.915px 398.46px;" class="animable" id="el6z5k2bhisv"><polygon points="137.89 431.29 43.94 377.05 43.95 365.63 137.89 419.87 137.89 431.29" id="elq74ynyg5tal" class="animable" style="transform-origin: 90.915px 398.46px;"></polygon></g></g><g id="el3a9iu6zp83w"><g style="opacity: 0.3; mix-blend-mode: multiply; transform-origin: 135.415px 421.49px;" class="animable" id="elgqxn75frm7f"><polygon points="137.89 422.41 132.94 419.87 137.89 423.11 137.89 422.41" id="el9pui5vd1y9w" class="animable" style="transform-origin: 135.415px 421.49px;"></polygon></g></g><g id="elqjcj8v4u3o"><g style="opacity: 0.3; mix-blend-mode: multiply; transform-origin: 125.46px 418.635px;" class="animable" id="elvnwe5ks50md"><polygon points="137.89 425.13 113.03 411.24 137.89 426.03 137.89 425.13" id="elh2jal2i9485" class="animable" style="transform-origin: 125.46px 418.635px;"></polygon></g></g><g id="ely4hxrvbsip9"><g style="opacity: 0.3; mix-blend-mode: multiply; transform-origin: 52.595px 376.165px;" class="animable" id="elcs0szk9elc"><polygon points="43.94 371 61.25 381.33 43.95 371.68 43.94 371" id="elnlw7jsgg6vj" class="animable" style="transform-origin: 52.595px 376.165px;"></polygon></g></g><g id="elb12zncu23du"><g style="opacity: 0.3; mix-blend-mode: multiply; transform-origin: 48.885px 376.885px;" class="animable" id="elymuj7pgtb9r"><polygon points="43.94 373.87 53.83 379.9 43.95 374.51 43.94 373.87" id="eld5conim0sqt" class="animable" style="transform-origin: 48.885px 376.885px;"></polygon></g></g><polygon points="145.21 367.95 96.6 396.02 82.64 387.97 131.24 359.89 145.21 367.95" style="fill: rgb(69, 90, 100); transform-origin: 113.925px 377.955px;" id="elt5sc9y0scb" class="animable"></polygon><polygon points="82.64 387.97 82.64 400.39 96.6 408.45 96.6 396.02 82.64 387.97" style="fill: rgb(55, 71, 79); transform-origin: 89.62px 398.21px;" id="el61n9vtl3whf" class="animable"></polygon><polygon points="96.6 408.45 97.47 407.94 96.6 407.44 96.6 408.45" style="fill: rgb(38, 50, 56); transform-origin: 97.035px 407.945px;" id="elpeiemp0n7yf" class="animable"></polygon><polygon points="145.21 367.95 145.21 369.85 143.57 368.9 145.21 367.95" style="fill: rgb(38, 50, 56); transform-origin: 144.39px 368.9px;" id="el0j9o36rr8hg5" class="animable"></polygon><g id="eleyexzmcjmx"><g style="opacity: 0.3; transform-origin: 97.035px 401.98px;" class="animable" id="el5t9f6s1217i"><polygon points="97.47 407.94 97.47 396.53 96.6 396.02 96.6 407.44 97.47 407.94" id="el29mhlw3a9vd" class="animable" style="transform-origin: 97.035px 401.98px;"></polygon></g></g><g id="el9m8lr7oqwvh"><g style="opacity: 0.2; transform-origin: 120.52px 382.715px;" class="animable" id="el92fpop2cs05"><polygon points="97.47 396.53 144.44 369.4 143.57 368.9 96.6 396.02 97.47 396.53" id="eldqxaorcj2jr" class="animable" style="transform-origin: 120.52px 382.715px;"></polygon></g></g><polygon points="133.61 361.26 84.99 389.33 84.24 388.89 132.85 360.83 133.61 361.26" style="fill: rgb(250, 250, 250); transform-origin: 108.925px 375.08px;" id="elpk8212xlh6" class="animable"></polygon><polygon points="84.99 389.33 84.99 401.75 84.23 401.31 84.24 388.89 84.99 389.33" style="fill: rgb(224, 224, 224); transform-origin: 84.61px 395.32px;" id="elujnq7odwh7" class="animable"></polygon><polygon points="143.63 367.02 95.01 395.09 94.26 394.66 142.87 366.59 143.63 367.02" style="fill: rgb(250, 250, 250); transform-origin: 118.945px 380.84px;" id="ele0obb64903" class="animable"></polygon><polygon points="95.01 395.09 95.01 407.51 94.25 407.07 94.26 394.66 95.01 395.09" style="fill: rgb(224, 224, 224); transform-origin: 94.63px 401.085px;" id="elx1zlpcut97j" class="animable"></polygon></g></g><g id="freepik--Character--inject-8" class="animable" style="transform-origin: 379.238px 200.904px;"><g id="freepik--character--inject-8" class="animable" style="transform-origin: 379.238px 200.904px;"><g id="freepik--character--inject-8" class="animable" style="transform-origin: 396.331px 200.904px;"><path d="M388,111.56c-7.35-.62-10.81,1.37-14.06,8.24-2.81,5.94-10.25,25.32-10.82,28.56-.52,2.9,4.63,17.78,4.63,17.78l10.67-2-4.05-12.85,10.18-23.12Z" style="fill: rgb(255, 168, 167); transform-origin: 375.542px 138.797px;" id="eld9nzsbejxf" class="animable"></path><path d="M389.35,111.56c-5.54-.92-9.64-2.08-13.31,2.43s-11.94,28.88-13,31.71-.52,4.9,1.61,10.75c0,0,6.89-3.4,11.19-1.23L374.6,151l11-23.28Z" style="fill: #2E3CDB; transform-origin: 375.931px 133.58px;" id="el52o3q5ukwwa" class="animable"></path><g id="el3qjxr8u0khq"><path d="M389.35,111.56c-5.54-.92-9.64-2.08-13.31,2.43s-11.94,28.88-13,31.71-.52,4.9,1.61,10.75c0,0,6.89-3.4,11.19-1.23L374.6,151l11-23.28Z" style="opacity: 0.15; transform-origin: 375.931px 133.58px;" class="animable" id="eljueemxyk6bj"></path></g><path d="M426.45,302.34a83,83,0,0,1,1.5,8.23c.4,3.11.64,5.41,1.55,10.73.83,4.85,1.45,8.55-2,12.19-3,3.21-8.33,4.44-10.08.8-2-4.17-1.73-10.93-1.46-15.14s.2-5.44.24-8.8c0-3,.18-4.16.34-6.71C419.8,303.47,423.22,302.6,426.45,302.34Z" style="fill: rgb(55, 71, 79); transform-origin: 422.961px 319.427px;" id="ellmge7yi8yh" class="animable"></path><path d="M426.45,302.34c-.05-4,0-9.22.36-16.2.42-8.13.48-14.47.45-23.08,0-6.52-.37-12.28-2.68-24.78,2.45-25.09,3.34-51,.38-60.56-2.55-8.18-5.14-10.91-7.43-14.91-1.19-2.07-3.36-5.15-3.36-7.93A51.24,51.24,0,0,1,396,158.41c-11.63.11-15.7-3-15.7-3s-5.24,60.79-4.15,80.63c.65,11.74,1.59,29.12,1.94,37.66.27,6.59,1,15.16,1,18.79a30.28,30.28,0,0,1-1.85,9.26,65.93,65.93,0,0,1-3.81,9.39,9.18,9.18,0,0,1-1.41,2.22,26.78,26.78,0,0,1-2.6,2.53c-1.88,1.62-2.82,2.42-2.66,3.92s1.28,2.1,2.55,2.48c3,.9,6.43.53,9.45,0s6.39-2,7.68-4.83a12,12,0,0,0,.72-2.66,38.13,38.13,0,0,1,2.3-8.75,19.9,19.9,0,0,1,1.68-3.4,8.58,8.58,0,0,0,1.91-3.82c.12-1.19-.8-2.88-2-4.68l0,0c-1-1.57-.75-2.65-.39-7.58.79-10.68,3-18.36,4.79-31.32a60,60,0,0,0-.38-18.76c1.24-8.5,3.39-17.41,4.65-23.27,2,12.27,3.36,16.75,4.47,26C405.72,252,413,279,414.11,285.89s1.87,11.57,2.41,17.2c.46,4.88.82,14.7,1.44,19.17,1,7.15,8.35,5,9.54-1.35C428.29,316.71,426.51,307.82,426.45,302.34Z" style="fill: rgb(255, 168, 167); transform-origin: 397.222px 240.806px;" id="elbpxjpn6jomg" class="animable"></path><path d="M390.64,318l-1.11-.17c-.07-3.48.13-6.67-.74-8.32l1.59-4.28Z" style="fill: rgb(38, 50, 56); transform-origin: 389.715px 311.615px;" id="elxltn9fawvri" class="animable"></path><path d="M393.37,302.15c-.25,2.39-1.6,4.84-1.7,9.55a41,41,0,0,0,.12,6l-1.15.31-.26-12.77Z" style="fill: rgb(38, 50, 56); transform-origin: 391.875px 310.08px;" id="elmgvgzbqif9j" class="animable"></path><path d="M367.06,321.24s.06,1.39.66,1.85,1.86,1.83,8,1.47,8.29-1.88,10.39-3.79,2.65-6.94,3-9.31c.61-4.59,2.52-7,4.3-9.31a4.11,4.11,0,0,0,.18-2.39s-3.55.59-5.75,6.21-5.44,11.28-10.4,12.84A84.92,84.92,0,0,1,367.06,321.24Z" style="fill: rgb(38, 50, 56); transform-origin: 380.375px 312.19px;" id="elzm5f9kh5z7" class="animable"></path><path d="M393,296.27c-.88-1.54-1.68-2-2.52-3.31a6.52,6.52,0,0,0-2,3.24c-.38,1.23-1.36,7.25-2.84,12.05-1.11,3.6-3,5.5-5.55,6.48a10.27,10.27,0,0,1-5.06.57h0c-3.18-.44-2.44-2.74-2.44-2.74-.74,1-3.78,3.5-5.58,5.33-1,1-.54,2.61.23,3.62.89.76,3,2.3,10.59,1.19,6.77-1,8.35-4.11,9-5.52a33,33,0,0,0,1.4-6.35,20.12,20.12,0,0,1,2.38-6.73c.15-.26.3-.51.44-.72h0c.46-.67,1-1.41,1.6-2.14.48-.58.85-.84,1-1.39A5.14,5.14,0,0,0,393,296.27Z" style="fill: rgb(55, 71, 79); transform-origin: 380.086px 308.025px;" id="elkljkiumoa3f" class="animable"></path><path d="M378.34,277.81c-.08-1.43-.15-2.83-.21-4.16-.35-8.54-1.29-25.92-1.94-37.66-1.09-19.84,4.15-80.63,4.15-80.63s4.07,3.16,15.7,3a51.24,51.24,0,0,0,18.13-3.53c0,2.78,2.17,5.86,3.36,7.93,2.29,4,4.88,6.73,7.43,14.91,3,9.54,2.07,35.47-.38,60.56,2.31,12.5,2.78,18.73,2.81,25.25,0,8.61-.09,13-.51,21.14-4.12,3.09-12.77,1.22-12.77,1.22C413,279,405.72,252,404.17,239.15c-1.11-9.28-2.43-13.76-4.47-26l-4.65,23.27a60,60,0,0,1,.38,18.76c-1.33,9.43-2.84,16.06-3.87,23.08C389.72,280.16,381.09,280.67,378.34,277.81Z" style="fill: rgb(69, 90, 100); transform-origin: 401.715px 220.615px;" id="el1e75ggfzytkg" class="animable"></path><path d="M380.05,153.47l-.11,6.76s4.45,3.41,12.63,4,19.65-2.68,22.83-5.08a11.21,11.21,0,0,1-.86-6.54,40.69,40.69,0,0,1-20.26,4.53C382.83,156.55,380.05,153.47,380.05,153.47Z" style="fill: rgb(55, 71, 79); transform-origin: 397.67px 158.455px;" id="el06fnbreca4ug" class="animable"></path><path d="M399.7,213.12l-4.79-28.2s-7.46-1.9-11.42-8a14.77,14.77,0,0,0,8.67,10.23l5.35,26.4-2.05,20.23Z" style="fill: rgb(55, 71, 79); transform-origin: 391.595px 205.35px;" id="el82798ggyzyd" class="animable"></path><path d="M378.65,142.33c.18,3.37,1.69,13,1.69,13,13.77,9.32,33.83-.48,33.83-.48L417.92,132s-8.23-8.44-1.49-19l-10.92-.7L394,111.79l-6-.23c-4.2,3.09-11.62,11.55-13,15S372.54,135.13,378.65,142.33Z" style="fill: #2E3CDB; transform-origin: 395.924px 135.456px;" id="elr7gppehbxqr" class="animable"></path><g id="el85ty1xza38b"><path d="M392.16,141.77c1.19,1.55,6.72,3.45,11.26,1.43a10.29,10.29,0,0,0,6.33-8.32,9,9,0,0,1-5.71,9.86C397,147.59,392.52,143.32,392.16,141.77Z" style="fill: rgb(38, 50, 56); opacity: 0.1; transform-origin: 401.013px 140.289px;" class="animable" id="elh0ugr7f8im6"></path></g><path d="M417.15,85s0-.09,0-.13,0-.2,0-.3v-.22h0c-.29-12.71-11-18.93-21.69-18.93h0a19.73,19.73,0,0,0-16.92,9.45c-6.2,1.6-4.61,10.18,1.59,11.72l0,.08c0,2.12,0,4.36,0,6.39.05,6.46-4.2,8.8-4.2,8.8s6.58,8.39,24.66,7.5C418.21,108.51,417.22,92.82,417.15,85Z" style="fill: rgb(38, 50, 56); transform-origin: 395.895px 87.423px;" id="el8w1xs9jxl42" class="animable"></path><path d="M412.11,66l-1,5.45a2.74,2.74,0,0,0,3.32-2.13A2.9,2.9,0,0,0,412.11,66Z" style="fill: rgb(38, 50, 56); transform-origin: 412.789px 68.762px;" id="el25xn4kt33j9" class="animable"></path><path d="M417.15,70.55l-5.61.61a2.72,2.72,0,0,0,3,2.51A2.91,2.91,0,0,0,417.15,70.55Z" style="fill: rgb(38, 50, 56); transform-origin: 414.349px 72.1176px;" id="elhvn2w2857b" class="animable"></path><path d="M405.5,113V97.11s2.05,2,5-.16c2.68-2,3.8-6.19,1.92-8.36-1.33-1.55-5.45-2.39-7.07.93,0,0-4.78-.24-11-4.66s-7.72-8.34-11.54-8.78c-1.8,1.37-3.54,5.41-3.36,16.06.14,7.88,3.67,11.64,5.47,13,1.47,1.11,3.35,1.26,6.52.74v7.47L388,127.68Z" style="fill: rgb(255, 168, 167); transform-origin: 396.395px 101.88px;" id="elgc2v7s5tgd4" class="animable"></path><path d="M405.39,88.78v4.37h0a3.08,3.08,0,0,1-3.11-3.05V85.88Z" style="fill: rgb(38, 50, 56); transform-origin: 403.835px 89.5151px;" id="els02vwczl41" class="animable"></path><path d="M393.73,89.45A1.45,1.45,0,0,0,395.09,91a1.46,1.46,0,0,0,1.52-1.4,1.44,1.44,0,1,0-2.88-.13Z" style="fill: rgb(38, 50, 56); transform-origin: 395.169px 89.5451px;" id="elz0otfyk417f" class="animable"></path><path d="M381.2,85.37l3-2.05a1.76,1.76,0,0,0-2.48-.48A1.85,1.85,0,0,0,381.2,85.37Z" style="fill: rgb(38, 50, 56); transform-origin: 382.554px 83.9467px;" id="elpkurcjcqfjo" class="animable"></path><path d="M395,97.18l-4.1,1.55a2.15,2.15,0,0,0,2.79,1.29A2.24,2.24,0,0,0,395,97.18Z" style="fill: rgb(242, 143, 143); transform-origin: 393.014px 98.6702px;" id="elbrwkuwjbajv" class="animable"></path><path d="M382.73,88.52a1.44,1.44,0,0,0,1.36,1.53,1.47,1.47,0,0,0,1.52-1.4,1.44,1.44,0,1,0-2.88-.13Z" style="fill: rgb(38, 50, 56); transform-origin: 384.169px 88.5949px;" id="elc419meafd2" class="animable"></path><polygon points="390.13 87.79 389.92 95.52 385.77 94.26 390.13 87.79" style="fill: rgb(242, 143, 143); transform-origin: 387.95px 91.655px;" id="elwjn3vbadn4n" class="animable"></polygon><path d="M391.46,105.87c3.35-.43,10.24-2.37,11.32-5a6.91,6.91,0,0,1-2.42,3.41c-2.06,1.73-8.9,3.68-8.9,3.68Z" style="fill: rgb(242, 143, 143); transform-origin: 397.12px 104.415px;" id="el5vsji3n8tb7" class="animable"></path><path d="M400.56,65.92c-6.92-1.58-9.68.42-16.67-.32-2.88-.3-5.5-.44-7.42.53-2.19,1.1-3.47,3.51-3.18,6.63.5,5.25,6.17,6.6,6.17,6.6s4.8-10.82,11.18-10.73S400.56,65.92,400.56,65.92Z" style="fill: rgb(38, 50, 56); transform-origin: 386.905px 72.327px;" id="elyqvyawmgu0j" class="animable"></path></g><g id="freepik--Prints--inject-8" class="animable" style="transform-origin: 363.53px 172.695px;"><g id="freepik--character--inject-8" class="animable" style="transform-origin: 363.53px 172.695px;"><polygon points="314.52 175.73 372.41 209.22 372.41 192.83 314.51 159.34 314.52 175.73" style="fill: rgb(224, 224, 224); transform-origin: 343.46px 184.28px;" id="elmzrhv3bxjvk" class="animable"></polygon><polygon points="412.55 186.05 372.41 209.22 372.41 192.83 412.55 169.66 412.55 186.05" style="fill: rgb(240, 240, 240); transform-origin: 392.48px 189.44px;" id="eleimeklpxkt" class="animable"></polygon><polygon points="314.51 159.34 354.65 136.17 412.55 169.66 372.41 192.83 314.51 159.34" style="fill: rgb(250, 250, 250); transform-origin: 363.53px 164.5px;" id="el53oz33klf73" class="animable"></polygon><path d="M394.09,165.4a6.12,6.12,0,0,1,1.14-.33,5.82,5.82,0,0,1,1.06-.1,5,5,0,0,1,.91.08,3.22,3.22,0,0,1,.66.21c.09,0,.13.1.12.16s-.05.11-.12.15l-.7.41a.87.87,0,0,1-.32.11,1.94,1.94,0,0,1-.33,0,3.29,3.29,0,0,0-.88,0,3,3,0,0,0-1.09.41,2.27,2.27,0,0,0-.44.32,1,1,0,0,0-.25.33.35.35,0,0,0,0,.3.49.49,0,0,0,.24.26,1.34,1.34,0,0,0,.48.15,2.36,2.36,0,0,0,.61-.06c.23-.06.5-.14.82-.25l1.14-.42a11.27,11.27,0,0,1,1.32-.41,5.67,5.67,0,0,1,1.1-.15,3.15,3.15,0,0,1,.94.11,3.63,3.63,0,0,1,.85.35,1.73,1.73,0,0,1,.58.51,1,1,0,0,1,.17.6,1.33,1.33,0,0,1-.24.66,3.11,3.11,0,0,1-.68.68l.68.39a.21.21,0,0,1,.11.16.18.18,0,0,1-.11.15l-.81.47a.49.49,0,0,1-.27.06.54.54,0,0,1-.27-.06l-.68-.39a6.81,6.81,0,0,1-1.08.35,7.23,7.23,0,0,1-1.09.17,5,5,0,0,1-1-.05,2.74,2.74,0,0,1-.89-.29q-.14-.06-.12-.15c0-.06,0-.11.12-.16l.69-.4a1,1,0,0,1,.32-.12,1.27,1.27,0,0,1,.33,0l.43.05a2.14,2.14,0,0,0,.5,0,3.93,3.93,0,0,0,.59-.15,3.6,3.6,0,0,0,.7-.33,3.07,3.07,0,0,0,.53-.36,1.27,1.27,0,0,0,.34-.37.49.49,0,0,0,.08-.34c0-.11-.1-.21-.25-.3a.93.93,0,0,0-.5-.13,2.52,2.52,0,0,0-.66.11,9.44,9.44,0,0,0-.9.3c-.34.12-.74.27-1.2.42a9,9,0,0,1-1.15.34,5.48,5.48,0,0,1-1,.13,3.59,3.59,0,0,1-.93-.12,3.56,3.56,0,0,1-.89-.38,1.58,1.58,0,0,1-.57-.5,1,1,0,0,1-.18-.58,1.19,1.19,0,0,1,.2-.62,2.55,2.55,0,0,1,.55-.61l-.68-.4a.18.18,0,0,1-.11-.15.21.21,0,0,1,.11-.16l.81-.46a.56.56,0,0,1,.54,0Z" style="fill: #2E3CDB; transform-origin: 397.055px 167.858px;" id="ela2apzgcmb4m" class="animable"></path></g><g id="el3vwdseuve3z"><polygon points="344.69 182.12 372.41 198.13 389.05 188.52 372.41 199.12 344.69 182.12" style="opacity: 0.1; transform-origin: 366.87px 190.62px;" class="animable" id="elw666y24r4as"></polygon></g><g id="elcdolgylr0qv"><path d="M320.09,166.48s-.92,5.18-.46,7.81c0,0,7.26-.18,19.51,3.2Z" style="opacity: 0.1; transform-origin: 329.321px 171.985px;" class="animable" id="elbxluixa1bjv"></path></g><polygon points="320.08 166.48 339.14 177.49 318.06 171.4 320.08 166.48" style="fill: rgb(250, 250, 250); transform-origin: 328.6px 171.985px;" id="elx6h04itkdhs" class="animable"></polygon><g id="el4t3ija65yyl"><path d="M344.69,184.49l20.89,19.21s.58-2.64,4.59-4.5Z" style="opacity: 0.1; transform-origin: 357.43px 194.095px;" class="animable" id="ela3lx39x1otq"></path></g><polygon points="344.69 184.49 364.31 201.01 370.17 199.21 344.69 184.49" style="fill: rgb(250, 250, 250); transform-origin: 357.43px 192.75px;" id="elw075muo2yw" class="animable"></polygon><g id="elpvzota2at7b"><path d="M405.86,177.89c-.11-.17-.18-.26-.18-.26l-13.2,7.62L407.34,184A9.06,9.06,0,0,0,405.86,177.89Z" style="opacity: 0.1; transform-origin: 399.941px 181.44px;" class="animable" id="elcvq5wdhxs8r"></path></g><polygon points="392.48 185.25 405.68 177.63 410.08 179.95 392.48 185.25" style="fill: rgb(250, 250, 250); transform-origin: 401.28px 181.44px;" id="elklkh4oe0ro" class="animable"></polygon><path d="M324.72,161.81a.53.53,0,0,1-.45-.25.52.52,0,0,1,.19-.7l23.86-13.81a.51.51,0,0,1,.51.89L325,161.74A.47.47,0,0,1,324.72,161.81Z" style="fill: rgb(69, 90, 100); transform-origin: 336.645px 154.397px;" id="el9kzvkse14gk" class="animable"></path><path d="M330.26,165a.5.5,0,0,1-.44-.25.51.51,0,0,1,.18-.7l23.86-13.81a.52.52,0,0,1,.52.89L330.52,165A.58.58,0,0,1,330.26,165Z" style="fill: rgb(69, 90, 100); transform-origin: 342.164px 157.607px;" id="elyrzdhfrirak" class="animable"></path><path d="M335.81,168.22a.54.54,0,0,1-.45-.26.52.52,0,0,1,.19-.7l23.86-13.81a.52.52,0,0,1,.7.19.51.51,0,0,1-.19.7l-23.86,13.81A.59.59,0,0,1,335.81,168.22Z" style="fill: rgb(69, 90, 100); transform-origin: 347.737px 160.802px;" id="eliqsn0d2a1bp" class="animable"></path><path d="M341.35,171.42a.5.5,0,0,1-.44-.26.51.51,0,0,1,.19-.7L365,156.65a.51.51,0,0,1,.7.19.51.51,0,0,1-.18.7l-23.86,13.81A.48.48,0,0,1,341.35,171.42Z" style="fill: rgb(69, 90, 100); transform-origin: 353.306px 164.002px;" id="el4cfpcomwv2l" class="animable"></path><path d="M346.9,174.62a.52.52,0,0,1-.45-.26.52.52,0,0,1,.19-.7l23.86-13.8a.52.52,0,0,1,.7.18.51.51,0,0,1-.19.7l-23.86,13.81A.47.47,0,0,1,346.9,174.62Z" style="fill: rgb(69, 90, 100); transform-origin: 358.827px 167.206px;" id="ell20zuanr0k" class="animable"></path><path d="M352.44,177.82a.51.51,0,0,1-.25-.95L376,163.06a.51.51,0,0,1,.7.19.5.5,0,0,1-.18.69L352.7,177.75A.48.48,0,0,1,352.44,177.82Z" style="fill: rgb(69, 90, 100); transform-origin: 364.354px 170.406px;" id="elch2866y6998" class="animable"></path><path d="M358,181a.53.53,0,0,1-.45-.25.52.52,0,0,1,.19-.7l23.86-13.81a.51.51,0,1,1,.51.89L358.24,181A.47.47,0,0,1,358,181Z" style="fill: rgb(69, 90, 100); transform-origin: 369.927px 173.593px;" id="el1isk1rhoza4" class="animable"></path><path d="M352.57,145.77a.49.49,0,0,1-.44-.26.5.5,0,0,1,.18-.69l5.42-3.17a.51.51,0,0,1,.7.19.5.5,0,0,1-.19.69l-5.41,3.17A.48.48,0,0,1,352.57,145.77Z" style="fill: rgb(69, 90, 100); transform-origin: 355.279px 143.676px;" id="elpf1zxxw7p5" class="animable"></path><path d="M358.11,149a.52.52,0,0,1-.44-.25.51.51,0,0,1,.19-.7l5.42-3.17a.51.51,0,0,1,.7.19.52.52,0,0,1-.19.7l-5.42,3.16A.48.48,0,0,1,358.11,149Z" style="fill: rgb(69, 90, 100); transform-origin: 360.823px 146.906px;" id="el4bkcpwwiwoo" class="animable"></path><path d="M363.66,152.17a.5.5,0,0,1-.44-.25.51.51,0,0,1,.18-.7l5.42-3.17a.51.51,0,0,1,.51.89l-5.41,3.16A.48.48,0,0,1,363.66,152.17Z" style="fill: rgb(69, 90, 100); transform-origin: 366.368px 150.076px;" id="el02ugw6uu0bnb" class="animable"></path><path d="M369.21,155.38a.54.54,0,0,1-.45-.26.51.51,0,0,1,.19-.7l5.42-3.17a.51.51,0,0,1,.51.89l-5.42,3.17A.59.59,0,0,1,369.21,155.38Z" style="fill: rgb(69, 90, 100); transform-origin: 371.914px 153.281px;" id="elsjalsidw1ok" class="animable"></path><path d="M374.75,158.58a.49.49,0,0,1-.44-.26.52.52,0,0,1,.18-.7l5.42-3.16a.51.51,0,1,1,.51.88L375,158.51A.48.48,0,0,1,374.75,158.58Z" style="fill: rgb(69, 90, 100); transform-origin: 377.475px 156.475px;" id="elx6l4zkr9z0c" class="animable"></path><path d="M380.3,161.78a.51.51,0,0,1-.26-1l5.42-3.16a.51.51,0,1,1,.51.88l-5.42,3.17A.47.47,0,0,1,380.3,161.78Z" style="fill: rgb(69, 90, 100); transform-origin: 382.956px 159.664px;" id="elyiy1tcoqvy" class="animable"></path><path d="M385.84,165a.49.49,0,0,1-.44-.26.51.51,0,0,1,.18-.69l5.42-3.17a.51.51,0,0,1,.7.19.5.5,0,0,1-.19.69l-5.41,3.17A.48.48,0,0,1,385.84,165Z" style="fill: rgb(69, 90, 100); transform-origin: 388.551px 162.906px;" id="ell8wisdorxq" class="animable"></path><polygon points="375.97 178.21 380.38 180.75 381.01 180.39 376.61 177.85 375.97 178.21" style="fill: rgb(69, 90, 100); transform-origin: 378.49px 179.3px;" id="el2oo3zrqdzee" class="animable"></polygon><polygon points="380.86 175.39 385.27 177.93 385.9 177.57 381.5 175.02 380.86 175.39" style="fill: rgb(69, 90, 100); transform-origin: 383.38px 176.475px;" id="elfl10uro8hc6" class="animable"></polygon><polygon points="384.97 173.02 389.37 175.56 389.78 175.33 385.38 172.78 384.97 173.02" style="fill: rgb(69, 90, 100); transform-origin: 387.375px 174.17px;" id="elf6p6qrwmn9e" class="animable"></polygon><polygon points="378.49 176.76 382.89 179.31 383.21 179.12 378.8 176.58 378.49 176.76" style="fill: rgb(69, 90, 100); transform-origin: 380.85px 177.945px;" id="elk1080v4z2w" class="animable"></polygon><polygon points="381.93 174.77 386.34 177.31 386.65 177.13 382.25 174.59 381.93 174.77" style="fill: rgb(69, 90, 100); transform-origin: 384.29px 175.95px;" id="elv4hgot8p16" class="animable"></polygon><polygon points="384.16 173.49 388.56 176.03 388.88 175.85 384.48 173.3 384.16 173.49" style="fill: rgb(69, 90, 100); transform-origin: 386.52px 174.665px;" id="elfok29yv1j8k" class="animable"></polygon><polygon points="377.1 177.56 381.5 180.1 382.63 179.46 378.22 176.91 377.1 177.56" style="fill: rgb(69, 90, 100); transform-origin: 379.865px 178.505px;" id="elalqr7769mrc" class="animable"></polygon><polygon points="379.35 176.26 383.75 178.81 384.87 178.16 380.47 175.62 379.35 176.26" style="fill: rgb(69, 90, 100); transform-origin: 382.11px 177.215px;" id="elth3lmqtxp0c" class="animable"></polygon><polygon points="382.72 174.32 387.12 176.86 387.89 176.42 383.49 173.88 382.72 174.32" style="fill: rgb(69, 90, 100); transform-origin: 385.305px 175.37px;" id="elpgz47fljmoh" class="animable"></polygon><polygon points="365.54 184.23 369.95 186.78 370.58 186.41 366.18 183.87 365.54 184.23" style="fill: rgb(69, 90, 100); transform-origin: 368.06px 185.325px;" id="elwfnjhsy7a6d" class="animable"></polygon><polygon points="370.43 181.41 374.84 183.95 375.47 183.59 371.06 181.05 370.43 181.41" style="fill: rgb(69, 90, 100); transform-origin: 372.95px 182.5px;" id="el3783vr70nie" class="animable"></polygon><polygon points="374.53 179.04 378.94 181.59 379.57 181.22 375.17 178.68 374.53 179.04" style="fill: rgb(69, 90, 100); transform-origin: 377.05px 180.135px;" id="eldonrukg9w9v" class="animable"></polygon><polygon points="368.05 182.78 372.46 185.33 372.77 185.15 368.37 182.6 368.05 182.78" style="fill: rgb(69, 90, 100); transform-origin: 370.41px 183.965px;" id="elya2crsaz9g" class="animable"></polygon><polygon points="371.48 180.81 375.88 183.35 376.2 183.16 371.79 180.62 371.48 180.81" style="fill: rgb(69, 90, 100); transform-origin: 373.84px 181.985px;" id="elu55h1uhwi5l" class="animable"></polygon><polygon points="373.73 179.51 378.13 182.05 378.45 181.87 374.04 179.33 373.73 179.51" style="fill: rgb(69, 90, 100); transform-origin: 376.09px 180.69px;" id="elakneoz1td2r" class="animable"></polygon><polygon points="366.67 183.59 371.07 186.13 371.9 185.65 367.5 183.11 366.67 183.59" style="fill: rgb(69, 90, 100); transform-origin: 369.285px 184.62px;" id="eldw4m1ucsbgn" class="animable"></polygon><polygon points="368.91 182.29 373.32 184.83 374.23 184.3 369.83 181.76 368.91 182.29" style="fill: rgb(69, 90, 100); transform-origin: 371.57px 183.295px;" id="elpwd5kua70lr" class="animable"></polygon><polygon points="372.33 180.32 376.73 182.86 377.6 182.37 373.19 179.82 372.33 180.32" style="fill: rgb(69, 90, 100); transform-origin: 374.965px 181.34px;" id="elm2jq2g2t76" class="animable"></polygon><polygon points="386.01 172.42 390.41 174.96 391.05 174.59 386.64 172.05 386.01 172.42" style="fill: rgb(69, 90, 100); transform-origin: 388.53px 173.505px;" id="ela8in5o2m5e5" class="animable"></polygon><polygon points="387.16 171.75 391.57 174.29 391.88 174.11 387.48 171.57 387.16 171.75" style="fill: rgb(69, 90, 100); transform-origin: 389.52px 172.93px;" id="elgmy5ml2o2vb" class="animable"></polygon><polygon points="389.3 170.51 393.71 173.06 394.02 172.88 389.62 170.33 389.3 170.51" style="fill: rgb(69, 90, 100); transform-origin: 391.66px 171.695px;" id="elhca36krxuri" class="animable"></polygon><polygon points="388.08 171.22 392.49 173.76 393.39 173.24 388.99 170.7 388.08 171.22" style="fill: rgb(69, 90, 100); transform-origin: 390.735px 172.23px;" id="eldu84yhvjlcl" class="animable"></polygon></g><g id="freepik--Arm--inject-8" class="animable" style="transform-origin: 421.698px 153.187px;"><path d="M416.43,113c3.27.63,7.62,1.41,10,5.47,3.06,5.2,17.06,33.59,16.83,35.81-.41,4-16.23,21.58-21.28,28.24-3.34,4.41-5.52,7.28-15.77,10.72-5.14,1.72-6.78.27-6.78.27L410.73,187c.59-.45,2-2,.47-1.9-1.29.07-2.56.32-3.85.3a5.4,5.4,0,0,1-3.13-.73,1,1,0,0,1-.45-.58.87.87,0,0,1,.2-.63,2.86,2.86,0,0,1,1-.53,9.88,9.88,0,0,1,1.18-.45c.81-.26,1.64-.46,2.43-.76,1.26-.48,2.41-.83,3.33-1.22a5.55,5.55,0,0,0,2.91-2.63c1.81-2.86,3-5.2,3.62-6.3,1.82-3.26,8.43-14.84,10.32-18.31l-12.37-20.34C412.36,127.79,412.45,113.89,416.43,113Z" style="fill: rgb(255, 168, 167); transform-origin: 421.346px 153.541px;" id="elen6x3ltx0d5" class="animable"></path><path d="M415,112.91c2-.52,7-1.66,9.51,1.66s13.69,25.94,14.91,28.63,5.67,9.4,4.28,12.19-5.19,6.71-5.19,6.71a20.16,20.16,0,0,0-11.64-5.5l1.59-3.32L415,131.71S410.4,121.37,415,112.91Z" style="fill: #2E3CDB; transform-origin: 428.461px 137.197px;" id="el32sv6q9ps53" class="animable"></path><g id="elnazd4syfmnn"><path d="M415,112.91c2-.52,7-1.66,9.51,1.66s13.69,25.94,14.91,28.63,5.67,9.4,4.28,12.19-5.19,6.71-5.19,6.71a20.16,20.16,0,0,0-11.64-5.5l1.59-3.32L415,131.71S410.4,121.37,415,112.91Z" style="opacity: 0.15; transform-origin: 428.461px 137.197px;" class="animable" id="elklwpdorvmec"></path></g></g></g></g><defs>     <filter id="active" height="200%">         <feMorphology in="SourceAlpha" result="DILATED" operator="dilate" radius="2"></feMorphology>                <feFlood flood-color="#32DFEC" flood-opacity="1" result="PINK"></feFlood>        <feComposite in="PINK" in2="DILATED" operator="in" result="OUTLINE"></feComposite>        <feMerge>            <feMergeNode in="OUTLINE"></feMergeNode>            <feMergeNode in="SourceGraphic"></feMergeNode>        </feMerge>    </filter>    <filter id="hover" height="200%">        <feMorphology in="SourceAlpha" result="DILATED" operator="dilate" radius="2"></feMorphology>                <feFlood flood-color="#ff0000" flood-opacity="0.5" result="PINK"></feFlood>        <feComposite in="PINK" in2="DILATED" operator="in" result="OUTLINE"></feComposite>        <feMerge>            <feMergeNode in="OUTLINE"></feMergeNode>            <feMergeNode in="SourceGraphic"></feMergeNode>        </feMerge>            <feColorMatrix type="matrix" values="0   0   0   0   0                0   1   0   0   0                0   0   0   0   0                0   0   0   1   0 "></feColorMatrix>    </filter></defs></svg>